<svg width="163" height="186" viewBox="0 0 163 186" fill="none" xmlns="http://www.w3.org/2000/svg">
<path d="M81.4972 186.001L8.80059 144.029C6.19111 142.522 4.02419 140.355 2.51754 137.745C1.01089 135.136 0.217577 132.175 0.217285 129.162V45.2217L81.4972 92.1486V186.001Z" fill="url(#paint0_linear_728_22078)"/>
<path d="M75.1659 175.034L13.6953 139.543C11.5225 138.289 9.71808 136.485 8.46358 134.312C7.20908 132.139 6.54869 129.675 6.54883 127.166V56.1885L68.0214 91.6782C70.1936 92.9328 71.9975 94.737 73.2516 96.9095C74.5057 99.0821 75.1659 101.546 75.1659 104.055V175.034Z" fill="#F5E83C"/>
<path d="M154.2 144.029L81.5012 186.001V92.1486L162.783 45.2217V129.162C162.783 132.175 161.99 135.136 160.483 137.745C158.976 140.355 156.809 142.522 154.2 144.029Z" fill="url(#paint1_linear_728_22078)"/>
<path d="M149.584 139.706L87.5466 175.523V103.89C87.5467 101.382 88.2071 98.917 89.4616 96.7445C90.7161 94.5719 92.5204 92.7679 94.6931 91.5137L156.73 55.6963V127.329C156.73 129.838 156.07 132.302 154.815 134.475C153.561 136.648 151.757 138.452 149.584 139.706Z" fill="#F5E83C"/>
<path d="M81.4989 92.1487L0.218994 45.2218L72.9137 3.2506C75.5239 1.74357 78.4849 0.950195 81.4989 0.950195C84.513 0.950195 87.474 1.74357 90.0842 3.2506L162.781 45.2218L81.4989 92.1487Z" fill="url(#paint2_linear_728_22078)"/>
<path d="M81.4989 90.7016L1.46438 44.501L0.218994 45.2194L81.4989 92.1463L162.777 45.2194L161.532 44.501L81.4989 90.7016Z" fill="#FA9983"/>
<defs>
<linearGradient id="paint0_linear_728_22078" x1="40.8572" y1="45.2217" x2="40.8572" y2="186.001" gradientUnits="userSpaceOnUse">
<stop stop-color="#FC9F09"/>
<stop offset="1" stop-color="#FBC83E"/>
</linearGradient>
<linearGradient id="paint1_linear_728_22078" x1="122.142" y1="45.2217" x2="122.142" y2="186.001" gradientUnits="userSpaceOnUse">
<stop stop-color="#FC9F09"/>
<stop offset="1" stop-color="#FBC83E"/>
</linearGradient>
<linearGradient id="paint2_linear_728_22078" x1="81.4999" y1="0.950195" x2="81.4999" y2="92.1487" gradientUnits="userSpaceOnUse">
<stop stop-color="#FC9F09"/>
<stop offset="1" stop-color="#FBC83E"/>
</linearGradient>
</defs>
</svg>
