<svg width="11" height="18" viewBox="0 0 11 18" fill="none" xmlns="http://www.w3.org/2000/svg">
<path d="M1.56119 18C1.26477 18.0004 0.974347 17.9312 0.724003 17.8005C0.47366 17.6698 0.273771 17.483 0.147785 17.2621C0.0217982 17.0411 -0.0250623 16.7952 0.0127002 16.5531C0.0504626 16.311 0.171281 16.0828 0.360986 15.8953L7.3422 9.01724L0.610669 2.127C0.480145 1.99147 0.383461 1.83602 0.326182 1.6696C0.268903 1.50318 0.252158 1.32907 0.276913 1.1573C0.301668 0.985532 0.367434 0.819489 0.470425 0.668728C0.573415 0.517967 0.711598 0.385464 0.877021 0.278846C1.04244 0.172228 1.23184 0.0935978 1.43431 0.0474821C1.63678 0.00136643 1.84833 -0.0113246 2.05678 0.0101388C2.26523 0.0316021 2.46647 0.0867961 2.64892 0.172545C2.83136 0.258294 2.99141 0.372905 3.11985 0.509781L10.6462 8.20812C10.875 8.43765 11 8.7254 11 9.02233C11 9.31927 10.875 9.60701 10.6462 9.83654L2.85905 17.5349C2.70277 17.6901 2.50427 17.8128 2.27964 17.8931C2.05502 17.9734 1.81058 18.009 1.56614 17.9969L1.56119 18Z" fill="white"/>
</svg>
