<svg width="19" height="20" viewBox="0 0 19 20" fill="none" xmlns="http://www.w3.org/2000/svg">
<path d="M17.7881 9.30162L9.8509 17.2388C9.36941 17.7202 8.79781 18.1021 8.16873 18.3626C7.53966 18.6231 6.86543 18.7572 6.18454 18.7571C4.80943 18.7571 3.49067 18.2107 2.51838 17.2383C1.54609 16.2659 0.999911 14.9471 1 13.5719C1.00009 12.1968 1.54644 10.8781 2.51885 9.90578L10.456 1.96862C11.1081 1.33971 11.9811 0.991934 12.887 1.00014C13.793 1.00835 14.6595 1.37188 15.3001 2.01251C15.9408 2.65314 16.3043 3.51966 16.3125 4.42561C16.3207 5.33156 15.973 6.20453 15.344 6.85666L7.39839 14.7948C7.07232 15.1092 6.63584 15.2831 6.18286 15.279C5.72989 15.2749 5.29663 15.0931 4.97631 14.7728C4.656 14.4525 4.47423 14.0192 4.47013 13.5663C4.46603 13.1133 4.63991 12.6768 4.95437 12.3507L12.2874 5.02718" stroke="#EFB73E" stroke-width="2" stroke-miterlimit="10" stroke-linecap="round" stroke-linejoin="round"/>
</svg>
