<svg width="22" height="17" viewBox="0 0 22 17" fill="none" xmlns="http://www.w3.org/2000/svg">
<path d="M0.292786 7.30529L7.29279 0.305288C7.38503 0.209778 7.49538 0.133596 7.61738 0.0811869C7.73939 0.0287779 7.87061 0.00119157 8.00339 3.77571e-05C8.13616 -0.00111606 8.26784 0.0241854 8.39074 0.0744663C8.51364 0.124747 8.62529 0.199 8.71918 0.292893C8.81307 0.386786 8.88733 0.498438 8.93761 0.621334C8.98789 0.74423 9.01319 0.87591 9.01204 1.00869C9.01088 1.14147 8.9833 1.27269 8.93089 1.39469C8.87848 1.5167 8.8023 1.62704 8.70679 1.71929L3.41379 7.01229H20.9998C21.265 7.01229 21.5194 7.11765 21.7069 7.30518C21.8944 7.49272 21.9998 7.74707 21.9998 8.01229C21.9998 8.2775 21.8944 8.53186 21.7069 8.71939C21.5194 8.90693 21.265 9.01229 20.9998 9.01229H3.41379L8.70679 14.3053C8.8023 14.3975 8.87848 14.5079 8.93089 14.6299C8.9833 14.7519 9.01088 14.8831 9.01204 15.0159C9.01319 15.1487 8.98789 15.2803 8.93761 15.4032C8.88733 15.5261 8.81307 15.6378 8.71918 15.7317C8.62529 15.8256 8.51364 15.8998 8.39074 15.9501C8.26784 16.0004 8.13616 16.0257 8.00339 16.0245C7.87061 16.0234 7.73939 15.9958 7.61738 15.9434C7.49538 15.891 7.38503 15.8148 7.29279 15.7193L0.292786 8.71929C0.105315 8.53176 0 8.27745 0 8.01229C0 7.74712 0.105315 7.49282 0.292786 7.30529V7.30529Z" fill="white"/>
</svg>
