<svg width="17" height="23" viewBox="0 0 17 23" fill="none" xmlns="http://www.w3.org/2000/svg">
<path d="M2.125 8.5H2.83333V5.66667C2.83333 2.5415 5.37483 0 8.5 0C11.6252 0 14.1667 2.5415 14.1667 5.66667V8.5H14.875C16.0461 8.5 17 9.45294 17 10.625V20.5417C17 21.7137 16.0461 22.6667 14.875 22.6667H2.125C0.953889 22.6667 4.76837e-07 21.7137 4.76837e-07 20.5417V10.625C4.76837e-07 9.45294 0.953889 8.5 2.125 8.5ZM12.2778 5.66667C12.2778 3.58322 10.5834 1.88889 8.5 1.88889C6.41656 1.88889 4.72222 3.58322 4.72222 5.66667V8.5H12.2778V5.66667ZM7.55556 15.793V17.9444C7.55556 18.4658 7.97772 18.8889 8.5 18.8889C9.02228 18.8889 9.44444 18.4658 9.44444 17.9444V15.793C10.0064 15.4653 10.3889 14.8627 10.3889 14.1667C10.3889 13.1249 9.54172 12.2778 8.5 12.2778C7.45828 12.2778 6.61111 13.1249 6.61111 14.1667C6.61111 14.8627 6.99361 15.4653 7.55556 15.793Z" fill="white"/>
</svg>
