<svg width="25" height="25" viewBox="0 0 25 25" fill="none" xmlns="http://www.w3.org/2000/svg">
<path d="M12.2752 0.000231983C10.6605 -0.0097257 9.05981 0.300978 7.56604 0.914328C6.07227 1.52768 4.71513 2.43147 3.5733 3.5733C2.43147 4.71513 1.52768 6.07227 0.914328 7.56604C0.300978 9.05981 -0.0097257 10.6605 0.000231983 12.2752C-0.0097257 13.89 0.300978 15.4907 0.914328 16.9844C1.52768 18.4782 2.43147 19.8353 3.5733 20.9772C4.71513 22.119 6.07227 23.0228 7.56604 23.6361C9.05981 24.2495 10.6605 24.5602 12.2752 24.5502C13.89 24.5602 15.4907 24.2495 16.9844 23.6361C18.4782 23.0228 19.8353 22.119 20.9772 20.9772C22.119 19.8353 23.0228 18.4782 23.6361 16.9844C24.2495 15.4907 24.5602 13.89 24.5502 12.2752C24.5602 10.6605 24.2495 9.05981 23.6361 7.56604C23.0228 6.07227 22.119 4.71513 20.9772 3.5733C19.8353 2.43147 18.4782 1.52768 16.9844 0.914328C15.4907 0.300978 13.89 -0.0097257 12.2752 0.000231983ZM12.2752 22.8002C10.1943 22.8002 8.1601 22.1832 6.42983 21.0272C4.69956 19.8711 3.35093 18.228 2.55446 16.3055C1.75799 14.3831 1.54944 12.2676 1.95519 10.2266C2.36094 8.18561 3.36277 6.31076 4.83399 4.83912C6.30522 3.36747 8.17978 2.36511 10.2207 1.95878C12.2615 1.55244 14.3771 1.76039 16.2997 2.55631C18.2224 3.35224 19.866 4.7004 21.0225 6.43034C22.179 8.16028 22.7966 10.1943 22.7972 12.2752C22.7891 15.0633 21.6779 17.7349 19.7064 19.7064C17.7349 21.6779 15.0633 22.7891 12.2752 22.7972V22.8002Z" fill="white"/>
<path d="M17.0126 18.4117L12.2776 13.6767L7.54062 18.4117L6.14062 17.0117L10.8756 12.2767L6.14062 7.54172L7.54062 6.14172L12.2756 10.8767L17.0126 6.13672L18.4126 7.53672L13.6776 12.2717L18.4126 17.0117L17.0126 18.4117Z" fill="white"/>
</svg>
