<svg width="21" height="21" viewBox="0 0 21 21" fill="none" xmlns="http://www.w3.org/2000/svg">
<path d="M16.5575 10.457C16.0756 10.457 15.6861 10.8474 15.6861 11.3284V18.3C15.6861 18.7801 15.2956 19.1714 14.8147 19.1714H2.61434C2.13325 19.1714 1.74295 18.7801 1.74295 18.3V6.09969C1.74295 5.61956 2.13325 5.2283 2.61434 5.2283H9.58598C10.0679 5.2283 10.4574 4.83784 10.4574 4.35691C10.4574 3.87581 10.0679 3.48535 9.58598 3.48535H2.61434C1.17298 3.48535 0 4.65833 0 6.09969V18.3C0 19.7414 1.17298 20.9144 2.61434 20.9144H14.8147C16.256 20.9144 17.429 19.7414 17.429 18.3V11.3284C17.429 10.8465 17.0393 10.457 16.5575 10.457Z" fill="#EFB73E"/>
<path d="M8.17105 9.66344C8.11009 9.72439 8.06909 9.80194 8.05169 9.88555L7.43561 12.9671C7.40688 13.1099 7.4522 13.2572 7.55496 13.3609C7.63778 13.4437 7.74931 13.4881 7.86356 13.4881C7.89133 13.4881 7.92021 13.4855 7.94893 13.4795L11.0295 12.8634C11.1149 12.8458 11.1924 12.805 11.2526 12.7439L18.1475 5.84899L15.0669 2.76855L8.17105 9.66344Z" fill="#EFB73E"/>
<path d="M20.2772 0.63727C19.4277 -0.212423 18.0455 -0.212423 17.1966 0.63727L15.9906 1.84328L19.0712 4.92387L20.2772 3.71771C20.6886 3.3073 20.9152 2.75999 20.9152 2.17789C20.9152 1.59579 20.6886 1.04847 20.2772 0.63727Z" fill="#EFB73E"/>
</svg>
