<svg width="60" height="60" viewBox="0 0 60 60" fill="none" xmlns="http://www.w3.org/2000/svg">
<path d="M0 15C0 6.71573 6.71573 0 15 0H45C53.2843 0 60 6.71573 60 15V45C60 53.2843 53.2843 60 45 60H15C6.71573 60 0 53.2843 0 45V15Z" fill="black"/>
<path d="M18.8134 37.6369L23.3352 42.1587L15.1777 45.7944L18.8134 37.6369ZM19.8482 36.2188L33.3375 22.7289L38.2432 27.6346L24.7533 41.1239L19.8482 36.2188ZM34.5642 21.5028L37.0165 19.0499L41.9222 23.9556L39.4693 26.4079L34.5642 21.5028ZM38.856 17.2104C40.2087 15.8582 42.4089 15.8582 43.7617 17.2104C45.1139 18.5632 45.1139 20.7634 43.7617 22.1161L43.1483 22.7295L38.2426 17.8238L38.856 17.2104Z" fill="white"/>
</svg>
