<svg width="50" height="50" viewBox="0 0 50 50" fill="none" xmlns="http://www.w3.org/2000/svg">
<g filter="url(#filter0_b_800_22063)">
<path d="M0 24.15C0 15.6076 0 11.3365 1.6888 8.08538C3.11193 5.34574 5.34574 3.11193 8.08538 1.6888C11.3365 0 15.6076 0 24.15 0H25.85C34.3924 0 38.6635 0 41.9146 1.6888C44.6543 3.11193 46.8881 5.34574 48.3112 8.08538C50 11.3365 50 15.6076 50 24.15V25.85C50 34.3924 50 38.6635 48.3112 41.9146C46.8881 44.6543 44.6543 46.8881 41.9146 48.3112C38.6635 50 34.3924 50 25.85 50H24.15C15.6076 50 11.3365 50 8.08538 48.3112C5.34574 46.8881 3.11193 44.6543 1.6888 41.9146C0 38.6635 0 34.3924 0 25.85V24.15Z" fill="white" fill-opacity="0.5"/>
</g>
<path d="M24.6751 16.9683L25 17.2461L25.3249 16.9683C26.4382 16.0166 27.8251 15.5 29.2906 15.5C30.947 15.5 32.5041 16.1599 33.6792 17.3644L34.0371 17.0153L33.6792 17.3644C36.1069 19.8528 36.1069 23.9081 33.6792 26.3966L26.3188 33.9411C26.3188 33.9412 26.3188 33.9412 26.3188 33.9412C25.9656 34.3032 25.4989 34.5 25 34.5C24.5011 34.5 24.0344 34.3032 23.6812 33.9412C23.6812 33.9412 23.6812 33.9412 23.6812 33.9412L16.3208 26.3966C13.893 23.908 13.8931 19.8528 16.3208 17.3644L16.3208 17.3644C17.4958 16.1599 19.0531 15.5 20.7094 15.5C22.1749 15.5 23.5618 16.0167 24.6751 16.9683Z" fill="white" stroke="white"/>
<defs>
<filter id="filter0_b_800_22063" x="-30" y="-30" width="110" height="110" filterUnits="userSpaceOnUse" color-interpolation-filters="sRGB">
<feFlood flood-opacity="0" result="BackgroundImageFix"/>
<feGaussianBlur in="BackgroundImageFix" stdDeviation="15"/>
<feComposite in2="SourceAlpha" operator="in" result="effect1_backgroundBlur_800_22063"/>
<feBlend mode="normal" in="SourceGraphic" in2="effect1_backgroundBlur_800_22063" result="shape"/>
</filter>
</defs>
</svg>
