<svg width="50" height="50" viewBox="0 0 50 50" fill="none" xmlns="http://www.w3.org/2000/svg">
<rect width="50" height="50" rx="15" fill="white" fill-opacity="0.2"/>
<path d="M24.5 35C24.1726 35 23.8569 34.8841 23.6109 34.6734C22.6817 33.8794 21.7859 33.1331 20.9956 32.4749L20.9915 32.4714C18.6744 30.5415 16.6734 28.8747 15.2812 27.2329C13.7249 25.3974 13 23.6571 13 21.7559C13 19.9088 13.648 18.2046 14.8246 16.9573C16.0152 15.6951 17.6489 15 19.4252 15C20.7529 15 21.9688 15.4102 23.039 16.2193C23.5791 16.6276 24.0687 17.1274 24.5 17.7104C24.9315 17.1274 25.4209 16.6276 25.9612 16.2193C27.0314 15.4102 28.2473 15 29.5749 15C31.3511 15 32.985 15.6951 34.1756 16.9573C35.3521 18.2046 36 19.9088 36 21.7559C36 23.6571 35.2753 25.3974 33.719 27.2327C32.3268 28.8747 30.326 30.5413 28.0092 32.4711C27.2174 33.1304 26.3202 33.8778 25.389 34.6738C25.1431 34.8841 24.8273 35 24.5 35ZM19.4252 16.3168C18.0297 16.3168 16.7476 16.8612 15.815 17.8498C14.8685 18.8533 14.3471 20.2405 14.3471 21.7559C14.3471 23.3549 14.9552 24.7849 16.3184 26.3927C17.6361 27.9467 19.596 29.5791 21.8652 31.4693L21.8694 31.4727C22.6628 32.1336 23.5621 32.8827 24.4981 33.6826C25.4397 32.8812 26.3404 32.1308 27.1353 31.469C29.4044 29.5788 31.3641 27.9467 32.6817 26.3927C34.0448 24.7849 34.6529 23.3549 34.6529 21.7559C34.6529 20.2405 34.1315 18.8533 33.185 17.8498C32.2525 16.8612 30.9703 16.3168 29.5749 16.3168C28.5526 16.3168 27.614 16.6345 26.7852 17.2608C26.0466 17.8193 25.5322 18.5252 25.2305 19.0191C25.0754 19.2731 24.8023 19.4248 24.5 19.4248C24.1977 19.4248 23.9246 19.2731 23.7695 19.0191C23.468 18.5252 22.9535 17.8193 22.2148 17.2608C21.386 16.6345 20.4474 16.3168 19.4252 16.3168Z" fill="white"/>
</svg>
