<svg width="25" height="25" viewBox="0 0 25 25" fill="none" xmlns="http://www.w3.org/2000/svg">
<g filter="url(#filter0_b_927_22053)">
<circle cx="12.5" cy="12.5" r="12.5" fill="#EFB73E"/>
</g>
<path d="M15.6999 12.8906C15.3545 13.2498 15.0162 13.6101 14.6796 13.9687C14.0085 14.6836 13.3441 15.3914 12.6442 16.0676C12.5604 16.1463 12.4278 16.1426 12.3489 16.0606L9.29964 12.8905C9.29964 12.8905 9.29963 12.8905 9.29963 12.8905C8.52684 12.087 8.52694 10.785 9.29958 9.98195L9.30135 9.9801C9.48189 9.79005 9.69897 9.63881 9.93939 9.5355C10.1798 9.43219 10.4386 9.37893 10.7001 9.37893C10.9616 9.37893 11.2204 9.43219 11.4608 9.5355C11.7012 9.63881 11.9183 9.79005 12.0988 9.9801L12.0988 9.98012L12.1014 9.98281L12.2126 10.0977C12.2881 10.1756 12.3919 10.2196 12.5004 10.2195C12.6089 10.2194 12.7126 10.1752 12.7879 10.0971L12.8987 9.98227L12.8987 9.98228L12.9002 9.98074C13.0813 9.79091 13.2987 9.63977 13.5393 9.53632C13.7798 9.43293 14.0385 9.37927 14.3 9.37852C14.8242 9.37866 15.3277 9.59431 15.6995 9.98137C16.073 10.3723 16.2812 10.8933 16.2801 11.4352L16.6801 11.436L16.2801 11.4369C16.2813 11.9787 16.0732 12.4997 15.6999 12.8906ZM15.6999 12.8906C15.7 12.8905 15.7002 12.8903 15.7004 12.8901L15.9887 13.1674L15.6995 12.8911C15.6996 12.8909 15.6998 12.8908 15.6999 12.8906Z" fill="white" stroke="white" stroke-width="0.8" stroke-linejoin="round"/>
<defs>
<filter id="filter0_b_927_22053" x="-12" y="-12" width="49" height="49" filterUnits="userSpaceOnUse" color-interpolation-filters="sRGB">
<feFlood flood-opacity="0" result="BackgroundImageFix"/>
<feGaussianBlur in="BackgroundImageFix" stdDeviation="6"/>
<feComposite in2="SourceAlpha" operator="in" result="effect1_backgroundBlur_927_22053"/>
<feBlend mode="normal" in="SourceGraphic" in2="effect1_backgroundBlur_927_22053" result="shape"/>
</filter>
</defs>
</svg>
