<svg width="108" height="108" viewBox="0 0 108 108" fill="none" xmlns="http://www.w3.org/2000/svg">
<g filter="url(#filter0_b_920_21929)">
<circle cx="54.3403" cy="54.3418" r="44.2261" transform="rotate(-14.0837 54.3403 54.3418)" fill="#EFB73E"/>
</g>
<path d="M57.4528 40.8317C56.4355 41.09 55.4829 41.5619 54.652 42.2198C53.8209 42.8779 53.1282 43.7089 52.6163 44.6641L52.6153 44.666L52.3415 45.1704C52.2881 45.2686 52.1961 45.3401 52.0876 45.3674C51.9792 45.3947 51.8643 45.3754 51.7707 45.3141L51.2899 44.9991L51.2868 44.997L51.2868 44.997C50.3857 44.3945 49.383 43.9878 48.3397 43.8002C47.2965 43.6127 46.2337 43.648 45.2155 43.9034C44.1973 44.1589 43.2438 44.6294 42.4126 45.2872C41.5814 45.9451 40.8894 46.777 40.3795 47.7334L40.3783 47.7357C38.2011 51.7575 39.5287 57.0498 43.3471 59.5691L57.4528 40.8317ZM57.4528 40.8317C59.4986 40.3187 61.6826 40.7101 63.5253 41.9279M57.4528 40.8317L63.5253 41.9279M66.4955 53.7605C65.6556 55.3132 64.834 56.8762 64.0131 58.4378C62.3631 61.577 60.716 64.7107 58.9283 67.7433C58.4261 68.5769 57.3666 68.8172 56.5521 68.2803C56.552 68.2802 56.552 68.2802 56.552 68.2802L43.3471 59.5691L67.6482 47.1825M66.4955 53.7605C66.4956 53.7603 66.4957 53.7601 66.4958 53.76L66.8476 53.9503L66.4952 53.7611C66.4953 53.7609 66.4954 53.7607 66.4955 53.7605ZM66.4955 53.7605C67.5428 51.8095 67.8189 49.4868 67.2604 47.2806L67.6482 47.1825M67.6482 47.1825L67.26 47.2791C66.7105 45.0704 65.3701 43.1532 63.5253 41.9279M67.6482 47.1825L63.5253 41.9279" fill="white" stroke="white" stroke-width="0.8" stroke-linejoin="round"/>
<defs>
<filter id="filter0_b_920_21929" x="-1.89648" y="-1.89453" width="112.474" height="112.473" filterUnits="userSpaceOnUse" color-interpolation-filters="sRGB">
<feFlood flood-opacity="0" result="BackgroundImageFix"/>
<feGaussianBlur in="BackgroundImageFix" stdDeviation="6"/>
<feComposite in2="SourceAlpha" operator="in" result="effect1_backgroundBlur_920_21929"/>
<feBlend mode="normal" in="SourceGraphic" in2="effect1_backgroundBlur_920_21929" result="shape"/>
</filter>
</defs>
</svg>
