<svg width="100" height="100" viewBox="0 0 100 100" fill="none" xmlns="http://www.w3.org/2000/svg">
<circle cx="50" cy="50" r="48.5" fill="#EFB73E" stroke="white" stroke-width="3"/>
<path d="M38 45H39.3333V39.6667C39.3333 33.784 44.1173 29 50 29C55.8827 29 60.6667 33.784 60.6667 39.6667V45H62C64.2044 45 66 46.7938 66 49V67.6667C66 69.8729 64.2044 71.6667 62 71.6667H38C35.7956 71.6667 34 69.8729 34 67.6667V49C34 46.7938 35.7956 45 38 45ZM57.1111 39.6667C57.1111 35.7449 53.9218 32.5556 50 32.5556C46.0782 32.5556 42.8889 35.7449 42.8889 39.6667V45H57.1111V39.6667ZM48.2222 58.728V62.7778C48.2222 63.7591 49.0169 64.5556 50 64.5556C50.9831 64.5556 51.7778 63.7591 51.7778 62.7778V58.728C52.8356 58.1111 53.5556 56.9769 53.5556 55.6667C53.5556 53.7058 51.9609 52.1111 50 52.1111C48.0391 52.1111 46.4444 53.7058 46.4444 55.6667C46.4444 56.9769 47.1644 58.1111 48.2222 58.728Z" fill="white"/>
</svg>
