<svg width="252" height="239" viewBox="0 0 252 239" fill="none" xmlns="http://www.w3.org/2000/svg">
<path d="M115.536 3.66504V97.3435L2.98083 162.326V68.6478L115.536 3.66504Z" fill="#DAA3BC"/>
<path d="M115.536 3.66504V97.3435L2.98083 162.326V68.6478L115.536 3.66504Z" fill="url(#paint0_linear_728_22322)"/>
<path d="M2.98319 162.33L0 160.585V66.9062L2.98319 68.6454V162.33Z" fill="#FF9200"/>
<path d="M0 66.906L2.98319 68.6451L118.845 1.74548L115.862 0L0 66.906Z" fill="#FF9200"/>
<path d="M248.12 173.873L115.539 97.345V3.66016L248.12 80.1885V173.873Z" fill="url(#paint1_linear_728_22322)"/>
<path d="M251.427 78.2715L118.846 1.74316L115.54 3.66002L248.12 80.1884L251.427 78.2715Z" fill="#FF9200"/>
<path d="M115.484 93.6758L2.97974 158.646L135.56 235.174L248.115 170.191L115.484 93.6758Z" fill="url(#paint2_linear_728_22322)"/>
<path d="M2.98035 158.646V162.327L135.561 238.855V235.174L2.98035 158.646Z" fill="#FF9200"/>
<path d="M51.2912 53.0554V49.4502L19.498 78.5395V84.747L22.8176 85.8832L64.8362 61.8844V53.0554H51.2912Z" fill="url(#paint3_linear_728_22322)"/>
<path d="M205.758 190.56L194.523 184.035L145.377 212.56L156.611 219.084L205.758 190.56Z" fill="#FF9200"/>
<path d="M169.128 157.454L116.326 188.137L41.4413 144.849L94.2437 114.16L169.128 157.454Z" fill="#DE9700"/>
<path d="M201.65 61.4909L204.424 59.9294C204.64 59.8025 204.938 59.8215 205.262 60.012L202.488 61.5734C202.158 61.383 201.866 61.3639 201.65 61.4909Z" fill="#FF9200"/>
<path d="M201.65 61.4924L204.423 59.931C204.544 59.8612 204.69 59.8358 204.849 59.8612L202.075 61.4226C201.916 61.3972 201.77 61.4226 201.65 61.4924Z" fill="#FF9200"/>
<path d="M202.075 61.4237L204.848 59.8623C204.944 59.875 205.045 59.9067 205.153 59.9575L202.379 61.5189C202.271 61.4682 202.17 61.4364 202.075 61.4237Z" fill="#FF9200"/>
<path d="M202.38 61.5175L205.154 59.9561C205.192 59.9751 205.23 59.9941 205.262 60.0132L202.488 61.5746C202.45 61.5492 202.412 61.5302 202.38 61.5175Z" fill="#FF9200"/>
<path d="M206.093 62.7933L203.32 64.3547C203.529 64.2341 203.663 63.9738 203.663 63.5994C203.663 62.8504 203.142 61.9427 202.488 61.5682L205.262 60.0068C205.909 60.3813 206.436 61.289 206.436 62.0379C206.43 62.4061 206.303 62.6663 206.093 62.7933Z" fill="#FF9200"/>
<path d="M202.489 61.5663L205.263 60.0049C205.333 60.043 205.402 60.0937 205.466 60.1445L202.692 61.7059C202.629 61.6488 202.559 61.6044 202.489 61.5663Z" fill="#FF9200"/>
<path d="M202.692 61.7001L205.465 60.1387C205.878 60.456 206.214 60.9828 206.36 61.5033L203.586 63.0647C203.441 62.5443 203.104 62.0238 202.692 61.7001Z" fill="#FF9200"/>
<path d="M203.588 63.0702L206.362 61.5088C206.4 61.6357 206.419 61.769 206.432 61.896L203.658 63.4574C203.645 63.3304 203.626 63.1971 203.588 63.0702Z" fill="#FF9200"/>
<path d="M203.657 63.4579L206.431 61.8965C206.437 61.9409 206.437 61.9917 206.437 62.0361C206.437 62.1123 206.431 62.1821 206.418 62.2519L203.644 63.8133C203.657 63.7499 203.663 63.6737 203.663 63.5975C203.663 63.5468 203.657 63.5023 203.657 63.4579Z" fill="#FF9200"/>
<path d="M203.644 63.8085L206.418 62.2471C206.374 62.5073 206.259 62.6914 206.094 62.7866L203.321 64.348C203.486 64.2528 203.606 64.0687 203.644 63.8085Z" fill="#FF9200"/>
<path d="M202.489 61.5715C203.136 61.946 203.663 62.8536 203.663 63.6026C203.663 64.3516 203.136 64.6499 202.483 64.2754C201.829 63.9009 201.308 62.9933 201.308 62.2443C201.308 61.4953 201.835 61.1907 202.489 61.5715Z" fill="#FF9200"/>
<path d="M127.596 18.5592L130.369 16.9978C130.585 16.8709 130.883 16.8899 131.207 17.0803L128.433 18.6417C128.103 18.4513 127.805 18.4323 127.596 18.5592Z" fill="#FF9200"/>
<path d="M127.595 18.5618L130.369 17.0003C130.489 16.9305 130.635 16.9051 130.794 16.9305L128.02 18.4919C127.855 18.4665 127.715 18.4919 127.595 18.5618Z" fill="#FF9200"/>
<path d="M128.02 18.4931L130.794 16.9316C130.889 16.9443 130.99 16.9761 131.098 17.0268L128.324 18.5883C128.217 18.5375 128.115 18.5057 128.02 18.4931Z" fill="#FF9200"/>
<path d="M128.325 18.5868L131.099 17.0254C131.137 17.0444 131.175 17.0635 131.207 17.0825L128.433 18.6439C128.395 18.6249 128.357 18.6058 128.325 18.5868Z" fill="#FF9200"/>
<path d="M132.039 19.8685L129.265 21.4299C129.475 21.3093 129.608 21.049 129.608 20.6746C129.608 19.9256 129.088 19.0179 128.434 18.6434L131.208 17.082C131.855 17.4565 132.382 18.3642 132.382 19.1131C132.376 19.4876 132.249 19.7479 132.039 19.8685Z" fill="#FF9200"/>
<path d="M128.434 18.6425L131.208 17.0811C131.278 17.1191 131.348 17.1699 131.411 17.2207L128.637 18.7821C128.574 18.7313 128.504 18.6806 128.434 18.6425Z" fill="#FF9200"/>
<path d="M128.637 18.7802L131.411 17.2188C131.823 17.5361 132.16 18.0629 132.306 18.5834L129.532 20.1448C129.386 19.6243 129.049 19.0975 128.637 18.7802Z" fill="#FF9200"/>
<path d="M129.534 20.1464L132.307 18.585C132.345 18.7183 132.364 18.8452 132.377 18.9721L129.603 20.5336C129.591 20.4066 129.565 20.2733 129.534 20.1464Z" fill="#FF9200"/>
<path d="M129.602 20.5341L132.376 18.9727C132.382 19.0171 132.382 19.0679 132.382 19.1123C132.382 19.1885 132.376 19.2583 132.363 19.3281L129.59 20.8895C129.602 20.826 129.609 20.7499 129.609 20.6737C129.609 20.6293 129.602 20.5785 129.602 20.5341Z" fill="#FF9200"/>
<path d="M129.59 20.8847L132.363 19.3232C132.319 19.5835 132.205 19.7675 132.04 19.8628L129.266 21.4242C129.431 21.329 129.552 21.1449 129.59 20.8847Z" fill="#FF9200"/>
<path d="M128.435 18.64C129.082 19.0145 129.609 19.9221 129.609 20.6711C129.609 21.4201 129.076 21.7184 128.428 21.3439C127.774 20.9694 127.254 20.0618 127.254 19.3128C127.254 18.5638 127.781 18.2655 128.435 18.64Z" fill="#FF9200"/>
<path d="M177.42 118.576L153.224 104.568V38.0996L177.42 52.1016V118.576Z" fill="#FFD56D"/>
<path d="M175.117 53.4362V114.592L174.711 114.357L164.409 108.384L157.821 104.569L155.53 103.243V42.0811L155.555 42.0937L165.856 48.0665L174.286 52.9538L175.117 53.4362Z" fill="#FF9200"/>
<path d="M155.53 57.083C162.099 61.9513 168.63 66.8831 175.117 71.872V79.5204C168.637 75.1027 162.112 70.7422 155.53 66.4642V57.083Z" fill="#FBB728"/>
<path d="M155.53 76.6787C162.08 80.4236 168.624 84.1684 175.117 87.9894V98.5956C168.617 95.3014 162.086 92.0897 155.53 88.9225V76.6787Z" fill="#FBB728"/>
<path d="M156.133 102.97V42.437L155.53 42.0879V103.243L175.117 114.592V113.97L156.133 102.97Z" fill="#FFD56D"/>
<path d="M155.53 103.243L156.133 102.97V42.437L155.53 42.0879V103.243Z" fill="#C2BFBA"/>
<path d="M155.527 105.923L131.338 91.9148V25.4404L155.527 39.4487V105.923Z" fill="#E6E6E6"/>
<path d="M153.223 40.7839V101.939L152.817 101.704L142.516 95.7317L135.927 91.917L133.636 90.5904V29.4287L133.661 29.4414L143.963 35.4141L152.392 40.3015L153.223 40.7839Z" fill="#FF9200"/>
<path d="M133.636 41.1299C140.193 45.8332 146.724 50.5809 153.223 55.3794V64.9764C146.762 60.8062 140.237 56.7313 133.636 52.7707V41.1299Z" fill="#FBB728"/>
<path d="M133.636 63.9941C140.123 67.8406 146.667 71.6045 153.223 75.3557V87.8089C146.705 84.6734 140.173 81.5759 133.636 78.4785V63.9941Z" fill="#FBB728"/>
<path d="M134.245 90.3175V29.7778L133.636 29.4287V90.5904L153.223 101.939V101.317L134.245 90.3175Z" fill="#FFD56D"/>
<path d="M133.636 90.5904L134.245 90.3175V29.7778L133.636 29.4287V90.5904Z" fill="#C2BFBA"/>
<path d="M199.303 131.261L175.114 117.253V50.7852L199.303 64.7871V131.261Z" fill="#E6E6E6"/>
<path d="M197.007 66.1218V127.277L196.6 127.042L186.299 121.07L179.704 117.255L177.419 115.928V54.7666L177.438 54.7793L187.74 60.752L196.169 65.6394L197.007 66.1218Z" fill="#FF9200"/>
<path d="M177.419 73.6562C184.001 78.7531 190.532 83.9197 197.007 89.1625V94.6973C190.507 90.1336 183.982 85.589 177.419 81.0952V73.6562Z" fill="#FBB728"/>
<path d="M177.419 89.3457C184.033 93.2619 190.583 97.267 197.007 101.431V110.158C190.526 106.578 183.995 103.125 177.419 99.7678V89.3457Z" fill="#FBB728"/>
<path d="M178.022 115.656V55.1162L177.419 54.7734V115.929L197.007 127.278V126.656L178.022 115.656Z" fill="#FFD56D"/>
<path d="M177.419 115.929L178.022 115.656V55.1162L177.419 54.7734V115.929Z" fill="#C2BFBA"/>
<path d="M191.491 57.7918V131.692C190.558 131.572 190.082 131.997 188.488 131.077C187.029 130.232 186.502 129.344 185.708 128.462V54.4531L191.491 57.7918Z" fill="#FBA916"/>
<path d="M202.623 64.2206L201.569 137.594C200.871 138.75 200.331 138.375 199.373 137.607V62.3418L202.623 64.2206Z" fill="#FF9200"/>
<path d="M199.373 62.3421V137.607C198.897 137.226 198.326 136.757 197.57 136.319C195.831 135.316 195.419 134.243 194.302 133.209V59.416L199.373 62.3421Z" fill="#FBA916"/>
<path d="M194.302 59.4188V133.218C193.959 132.901 193.56 132.59 193.026 132.285C192.354 131.898 191.884 131.752 191.49 131.701V57.7939L194.302 59.4188Z" fill="#FF9200"/>
<path d="M185.709 54.454V128.469C185.271 127.986 184.75 127.504 183.944 127.034C183.525 126.793 183.189 126.647 182.897 126.558V52.8291L185.709 54.454Z" fill="#FF9200"/>
<path d="M170.836 45.8721L173.16 47.2113V121.359C171.7 121.359 170.538 122.045 169.776 119.893L170.836 45.8721Z" fill="#FBA916"/>
<path d="M182.896 52.8293V126.559C181.602 126.159 181.259 126.908 179.405 125.835C177.584 124.781 177.222 123.658 175.978 122.579V48.8369L182.896 52.8293Z" fill="#FBA916"/>
<path d="M175.971 48.8348V122.583C175.666 122.317 175.311 122.056 174.86 121.796C174.257 121.447 173.686 121.358 173.159 121.358V47.21L175.971 48.8348Z" fill="#FF9200"/>
<path d="M148.443 32.7127V106.613C147.51 106.493 147.034 106.918 145.441 105.998C143.981 105.153 143.455 104.265 142.661 103.383V29.374L148.443 32.7127Z" fill="#FBA916"/>
<path d="M159.569 39.1371L158.516 112.511C157.818 113.666 157.278 113.292 156.32 112.524V37.2646L159.569 39.1371Z" fill="#FF9200"/>
<path d="M156.32 37.2649V112.53C155.844 112.149 155.272 111.68 154.517 111.242C152.778 110.239 152.365 109.166 151.248 108.132V34.3389L156.32 37.2649Z" fill="#FBA916"/>
<path d="M151.255 34.3368V108.136C150.912 107.818 150.512 107.507 149.979 107.203C149.306 106.816 148.837 106.67 148.443 106.619V32.7119L151.255 34.3368Z" fill="#FF9200"/>
<path d="M142.662 29.372V103.387C142.224 102.904 141.703 102.422 140.897 101.952C140.478 101.711 140.142 101.565 139.85 101.476V27.7471L142.662 29.372Z" fill="#FF9200"/>
<path d="M127.789 20.7861L130.112 22.1254V96.2735C128.652 96.2735 127.491 96.959 126.729 94.8073L127.789 20.7861Z" fill="#FBA916"/>
<path d="M139.842 27.7497V101.479C138.547 101.079 138.204 101.828 136.351 100.755C134.529 99.7017 134.167 98.5783 132.923 97.4992V23.751L139.842 27.7497Z" fill="#FBA916"/>
<path d="M132.924 23.7494V97.4977C132.619 97.2311 132.264 96.9708 131.813 96.7106C131.21 96.3615 130.639 96.2726 130.112 96.2726V22.1309L132.924 23.7494Z" fill="#FF9200"/>
<path d="M206.097 63.415L126.896 17.3914C126.68 17.2644 126.382 17.2835 126.058 17.4739L205.253 63.4975C205.583 63.3071 205.881 63.2944 206.097 63.415Z" fill="#FCA00A"/>
<path d="M206.096 63.4175L126.896 17.3939C126.775 17.3241 126.629 17.2987 126.471 17.3241L205.665 63.3477C205.83 63.3223 205.976 63.3477 206.096 63.4175Z" fill="#FF9200"/>
<path d="M205.666 63.3488L126.471 17.3252C126.376 17.3379 126.275 17.3696 126.167 17.4204L205.361 63.444C205.469 63.3933 205.57 63.3615 205.666 63.3488Z" fill="#FF9200"/>
<path d="M205.367 63.4426L126.166 17.4189C126.128 17.438 126.09 17.457 126.058 17.4761L205.253 63.4997C205.291 63.4807 205.329 63.4616 205.367 63.4426Z" fill="#FF9200"/>
<path d="M125.227 20.261L204.421 66.2847C204.211 66.1641 204.078 65.9038 204.078 65.5293C204.078 64.7804 204.599 63.8727 205.252 63.4982L126.058 17.4746C125.411 17.8491 124.884 18.7567 124.884 19.5057C124.884 19.8739 125.017 20.1341 125.227 20.261Z" fill="#FCA00A"/>
<path d="M205.253 63.4973L126.058 17.4736C125.989 17.5117 125.919 17.5625 125.855 17.6133L205.05 63.6369C205.119 63.5861 205.183 63.5417 205.253 63.4973Z" fill="#FF9200"/>
<path d="M205.049 63.635L125.855 17.6113C125.443 17.9287 125.106 18.4555 124.96 18.976L204.154 64.9996C204.3 64.4791 204.637 63.9587 205.049 63.635Z" fill="#FCA00A"/>
<path d="M204.16 65.0012L124.96 18.9775C124.922 19.1045 124.902 19.2378 124.89 19.3647L204.084 65.3883C204.097 65.2614 204.122 65.1345 204.16 65.0012Z" fill="#FF9200"/>
<path d="M204.091 65.3889L124.891 19.3652C124.884 19.4097 124.884 19.4604 124.884 19.5049C124.884 19.581 124.891 19.6509 124.903 19.7207L204.098 65.7443C204.085 65.6808 204.079 65.6047 204.079 65.5285C204.085 65.4841 204.085 65.4396 204.091 65.3889Z" fill="#FF9200"/>
<path d="M204.097 65.7424L124.902 19.7188C124.947 19.979 125.061 20.1631 125.226 20.2583L204.42 66.2819C204.255 66.1803 204.141 65.9963 204.097 65.7424Z" fill="#FF9200"/>
<path d="M205.253 63.4964C204.605 63.8709 204.079 64.7786 204.079 65.5275C204.079 66.2765 204.605 66.5748 205.259 66.2004C205.913 65.8259 206.433 64.9182 206.433 64.1692C206.433 63.4203 205.907 63.122 205.253 63.4964Z" fill="#FF9200"/>
<path d="M54.1228 131.808L51.9076 132.074L46.8806 129.339L49.6417 127.93L54.1228 131.808Z" fill="#CCCCCC"/>
<path d="M54.1413 130.469L54.1222 131.808L49.3237 128.971L49.3491 127.632L54.1413 130.469Z" fill="#1A1A1A"/>
<path d="M49.349 127.632L56.6293 123.531L61.4277 126.375L54.1411 130.469L49.349 127.632Z" fill="#666666"/>
<path d="M54.1221 131.806L61.4087 127.712L61.4277 126.373L54.1411 130.467L54.1221 131.806Z" fill="#333333"/>
<path d="M53.7415 130.36L53.7288 131.477L49.3239 128.868L49.3429 127.751L53.7415 130.36Z" fill="#CCCCCC"/>
<path d="M55.7663 128.806L55.7473 129.936L51.6978 127.53L51.7104 126.4L55.7663 128.806Z" fill="#316154"/>
<path d="M51.7104 126.399L57.8672 122.939L61.9231 125.339L55.7663 128.804L51.7104 126.399Z" fill="#5BB59D"/>
<path d="M55.7477 129.936L61.9045 126.471L61.9235 125.341L55.7667 128.806L55.7477 129.936Z" fill="#49917E"/>
<path d="M55.4302 128.705L55.4175 129.651L51.6917 127.442L51.7107 126.496L55.4302 128.705Z" fill="#CCCCCC"/>
<path d="M53.2555 128.174L53.2365 129.063L48.438 126.219L48.457 125.337L53.2555 128.174Z" fill="#CC0000"/>
<path d="M48.4561 125.337L55.7427 121.236L60.5348 124.08L53.2545 128.174L48.4561 125.337Z" fill="#FF6666"/>
<path d="M53.2363 129.061L60.5166 124.967L60.5356 124.078L53.2554 128.172L53.2363 129.061Z" fill="#FF3333"/>
<path d="M52.8548 128.064L52.8358 128.73L48.4371 126.122L48.4498 125.455L52.8548 128.064Z" fill="#CCCCCC"/>
<path d="M198.684 178.02L188.757 172.25L188.795 184.284L198.722 190.054L198.684 178.02Z" fill="url(#paint4_linear_728_22322)"/>
<path d="M198.725 190.06L188.798 184.29L147.598 208.213L157.519 213.982L198.725 190.06Z" fill="url(#paint5_linear_728_22322)"/>
<path d="M156.375 201.305L146.448 195.535L146.486 210.127L156.413 215.891L156.375 201.305Z" fill="#FF9200"/>
<path d="M199.797 176.105L189.87 170.335L146.448 195.533L156.375 201.303L199.797 176.105Z" fill="#FF9200"/>
<path d="M199.835 190.689L156.414 215.888L156.369 201.302L199.791 176.104L199.835 190.689ZM157.518 213.977L198.718 190.061L198.686 178.027L157.486 201.943L157.518 213.977Z" fill="url(#paint6_linear_728_22322)"/>
<path d="M185.566 179.671L183.434 178.433L185.763 177.088L187.896 178.326L185.566 179.671Z" fill="#FBC034"/>
<path d="M165.671 191.28L163.538 190.043L183.437 178.434L185.57 179.671L165.671 191.28Z" fill="#F2F2F2"/>
<path d="M163.34 192.626L161.208 191.382L163.537 190.043L165.67 191.281L163.34 192.626Z" fill="#FBC034"/>
<path d="M163.34 193.578L161.208 192.34V191.382L163.34 192.626V193.578Z" fill="#FF9200"/>
<path d="M187.897 178.323V179.275L163.34 193.576V192.624L165.669 191.278L185.568 179.669L187.897 178.323Z" fill="#FBC034"/>
<path d="M197.328 146.904L195.195 145.667C195.576 145.444 195.925 145.425 196.172 145.571L198.305 146.809C198.058 146.669 197.708 146.688 197.328 146.904Z" fill="#FBAA18"/>
<path d="M165.658 188.862L163.532 187.618L183.424 176.009L185.557 177.253L165.658 188.862Z" fill="#191919"/>
<path d="M165.671 191.28L163.538 190.042L163.532 187.617L165.658 188.861L165.671 191.28Z" fill="#FF9200"/>
<path d="M185.556 177.251L185.569 179.669L165.67 191.278L165.658 188.86L185.556 177.251Z" fill="#FBC034"/>
<path d="M152.844 195.785L150.711 194.547C150.463 194.401 150.311 194.097 150.311 193.665L152.444 194.903C152.444 195.334 152.596 195.639 152.844 195.785Z" fill="#E8A319"/>
<path d="M152.443 194.902L150.311 193.664L150.304 191.919L152.437 193.157L152.443 194.902Z" fill="#E8A319"/>
<path d="M152.438 193.159L150.305 191.922L150.26 175.063L152.393 176.301L152.438 193.159Z" fill="#FF9200"/>
<path d="M152.395 176.3L150.262 175.062L150.255 173.316L152.388 174.554L152.395 176.3Z" fill="#E8A319"/>
<path d="M153.765 172.174L151.632 170.937L195.193 145.662L197.326 146.9L153.765 172.174Z" fill="#E8A319"/>
<path d="M152.389 174.556L150.256 173.319C150.256 172.449 150.872 171.376 151.634 170.938L153.766 172.176C153.005 172.614 152.389 173.687 152.389 174.556Z" fill="#FBAA18"/>
<path d="M152 174.836L152.006 176.582L152.057 193.44L152.063 195.185C152.063 196.061 152.685 196.41 153.447 195.972L165.278 189.143L185.177 177.534L197.008 170.704C197.763 170.266 198.385 169.2 198.385 168.324L198.379 166.578L198.328 149.72L198.322 147.975C198.322 147.105 197.7 146.75 196.938 147.188L153.377 172.456C152.616 172.894 152 173.967 152 174.836Z" fill="url(#paint7_linear_728_22322)"/>
<path d="M109.998 171.031L110.03 182.418L114.143 184.811L114.111 173.418L109.998 171.031Z" fill="#FF9200"/>
<path d="M114.111 173.418L114.143 184.811L118.281 182.418L118.25 171.031L114.111 173.418Z" fill="#FBB424"/>
<path d="M109.998 171.034L114.111 173.421L118.25 171.034L114.137 168.642L109.998 171.034Z" fill="#272727"/>
<path d="M38.2692 129.879L38.2438 141.272L42.3568 143.665L42.325 132.272L38.2692 129.879Z" fill="#FF9200"/>
<path d="M42.323 132.272L42.3547 143.665L46.4995 141.272L46.4677 129.879L42.323 132.272Z" fill="#FBB424"/>
<path d="M38.269 129.872L42.3249 132.265L46.4696 129.872L42.3566 127.485L38.269 129.872Z" fill="#272727"/>
<path d="M155.425 144.771L155.456 156.165L159.569 158.551L159.538 147.164L155.425 144.771Z" fill="#FF9200"/>
<path d="M159.538 147.164L159.569 158.551L163.708 156.165L163.676 144.771L159.538 147.164Z" fill="#FBB424"/>
<path d="M155.425 144.771L159.538 147.164L163.676 144.771L159.563 142.378L155.425 144.771Z" fill="#272727"/>
<path d="M163.709 140.455L163.677 151.842L114.137 180.633L114.169 169.24L163.709 140.455Z" fill="url(#paint8_linear_728_22322)"/>
<path d="M114.172 169.242L114.14 180.635L38.2716 136.782V125.37L114.172 169.242Z" fill="url(#paint9_linear_728_22322)"/>
<path d="M163.712 140.456L114.172 169.241L38.2716 125.369L87.8116 96.5781L163.712 140.456Z" fill="#FF9200"/>
<path d="M92.3901 84.4727L92.4409 99.3251L42.9009 128.116L42.8501 113.264L92.3901 84.4727Z" fill="#DE9700"/>
<path d="M89.4394 97.6069L89.4141 89.6729L45.8531 114.986L45.8785 122.926L89.4394 97.6069Z" fill="url(#paint10_linear_728_22322)"/>
<path d="M42.8501 113.262L42.9009 128.114L38.2357 125.341L38.1849 110.488L42.8501 113.262Z" fill="#FF9200"/>
<path d="M92.3901 84.47L42.8501 113.261L38.1849 110.487L87.7249 81.6963L92.3901 84.47Z" fill="#2C2C2C"/>
<path d="M94.3566 82.0869V84.2323L41.2368 115.105V112.96L94.3566 82.0869Z" fill="#FF9200"/>
<path d="M41.2363 112.963V115.109L36.2284 112.138V109.986L41.2363 112.963Z" fill="#FBB424"/>
<path d="M94.3562 82.0887L41.2363 112.961L36.2284 109.985L89.3546 79.1182L94.3562 82.0887Z" fill="#DE9700"/>
<path d="M163.708 134.158L163.676 139.852L114.136 168.643L114.168 162.949L163.708 134.158Z" fill="#FF9200"/>
<path d="M114.169 162.95L114.137 168.643L43.8796 128.027L43.9114 122.334L114.169 162.95Z" fill="#FF9200"/>
<path d="M163.797 134.616L114.257 163.407L44 122.791L93.54 94L163.797 134.616Z" fill="#FBBE31"/>
<path d="M251.425 168.354V172.035L135.563 238.858V235.177L251.425 168.354Z" fill="#FDA514"/>
<path d="M202.886 196.32L199.902 194.581V104.387L202.886 106.132V196.32Z" fill="#FF9200"/>
<path d="M199.902 104.387L202.886 106.132L251.423 78.287L248.433 76.5479L199.902 104.387Z" fill="#FF9200"/>
<path d="M251.423 78.2891V171.949L202.886 199.603V106.134L251.423 78.2891Z" fill="url(#paint11_linear_728_22322)"/>
<defs>
<linearGradient id="paint0_linear_728_22322" x1="59.2584" y1="3.66504" x2="59.2584" y2="162.326" gradientUnits="userSpaceOnUse">
<stop stop-color="#FC9F09"/>
<stop offset="1" stop-color="#FBC83E"/>
</linearGradient>
<linearGradient id="paint1_linear_728_22322" x1="181.829" y1="3.66016" x2="181.829" y2="173.873" gradientUnits="userSpaceOnUse">
<stop stop-color="#FC9F09"/>
<stop offset="1" stop-color="#FBC83E"/>
</linearGradient>
<linearGradient id="paint2_linear_728_22322" x1="125.548" y1="93.6758" x2="125.548" y2="235.174" gradientUnits="userSpaceOnUse">
<stop stop-color="#FC9F09"/>
<stop offset="1" stop-color="#FBC83E"/>
</linearGradient>
<linearGradient id="paint3_linear_728_22322" x1="42.1671" y1="49.4502" x2="42.1671" y2="85.8832" gradientUnits="userSpaceOnUse">
<stop stop-color="#FC9F09"/>
<stop offset="1" stop-color="#FBC83E"/>
</linearGradient>
<linearGradient id="paint4_linear_728_22322" x1="193.74" y1="172.25" x2="193.74" y2="190.054" gradientUnits="userSpaceOnUse">
<stop stop-color="#FC9F09"/>
<stop offset="1" stop-color="#FBC83E"/>
</linearGradient>
<linearGradient id="paint5_linear_728_22322" x1="173.161" y1="184.29" x2="173.161" y2="213.982" gradientUnits="userSpaceOnUse">
<stop stop-color="#FC9F09"/>
<stop offset="1" stop-color="#FBC83E"/>
</linearGradient>
<linearGradient id="paint6_linear_728_22322" x1="178.102" y1="176.104" x2="178.102" y2="215.888" gradientUnits="userSpaceOnUse">
<stop stop-color="#FC9F09"/>
<stop offset="1" stop-color="#FBC83E"/>
</linearGradient>
<linearGradient id="paint7_linear_728_22322" x1="175.193" y1="147" x2="175.193" y2="196.161" gradientUnits="userSpaceOnUse">
<stop stop-color="#FC9F09"/>
<stop offset="1" stop-color="#FBC83E"/>
</linearGradient>
<linearGradient id="paint8_linear_728_22322" x1="138.923" y1="140.455" x2="138.923" y2="180.633" gradientUnits="userSpaceOnUse">
<stop stop-color="#FC9F09"/>
<stop offset="1" stop-color="#FBC83E"/>
</linearGradient>
<linearGradient id="paint9_linear_728_22322" x1="76.2216" y1="125.37" x2="76.2216" y2="180.635" gradientUnits="userSpaceOnUse">
<stop stop-color="#FC9F09"/>
<stop offset="1" stop-color="#FBC83E"/>
</linearGradient>
<linearGradient id="paint10_linear_728_22322" x1="67.6463" y1="89.6729" x2="67.6463" y2="122.926" gradientUnits="userSpaceOnUse">
<stop stop-color="#FC9F09"/>
<stop offset="1" stop-color="#FBC83E"/>
</linearGradient>
<linearGradient id="paint11_linear_728_22322" x1="227.155" y1="78.2891" x2="227.155" y2="199.603" gradientUnits="userSpaceOnUse">
<stop stop-color="#FC9F09"/>
<stop offset="1" stop-color="#FBC83E"/>
</linearGradient>
</defs>
</svg>
