<svg width="24" height="24" viewBox="0 0 24 24" fill="none" xmlns="http://www.w3.org/2000/svg">
<path d="M23.0953 9.91504H13.3053C12.8736 9.91504 12.5242 10.2645 12.5242 10.6962V13.8259C12.5242 14.2576 12.8736 14.607 13.3053 14.607H18.8195C18.2183 16.1744 17.0877 17.4849 15.6539 18.3174L18.0024 22.3876C21.7694 20.2086 23.9997 16.38 23.9997 12.0991C23.9997 11.4876 23.9535 11.0508 23.8661 10.5626C23.7942 10.1874 23.4704 9.91504 23.0953 9.91504Z" fill="#167EE6"/>
<path d="M11.9999 19.3023C9.30184 19.3023 6.94814 17.8274 5.68392 15.6484L1.61377 17.9919C3.68482 21.5841 7.56483 23.9994 11.9999 23.9994C14.1788 23.9994 16.2293 23.4136 18.0023 22.3909V22.3858L15.6537 18.3156C14.5745 18.9426 13.3309 19.3023 11.9999 19.3023Z" fill="#12B347"/>
<path d="M17.9971 22.3897V22.3846L15.6485 18.3145C14.5744 18.9363 13.3308 19.3012 11.9998 19.3012V23.9983C14.1787 23.9983 16.2292 23.4124 17.9971 22.3897Z" fill="#0F993E"/>
<path d="M4.69712 12C4.69712 10.669 5.062 9.4253 5.68383 8.35123L1.61367 6.00781C0.585856 7.77052 0 9.81587 0 12C0 14.1841 0.585856 16.2294 1.61367 17.9922L5.68383 15.6487C5.05686 14.5747 4.69712 13.331 4.69712 12Z" fill="#FFD500"/>
<path d="M11.9999 4.69712C13.7574 4.69712 15.3762 5.32409 16.6353 6.36218C16.9488 6.61914 17.401 6.59858 17.6837 6.31593L19.8986 4.10099C20.2224 3.77723 20.1967 3.2479 19.8524 2.94983C17.7402 1.11004 14.9908 0 11.9999 0C7.56483 0 3.68482 2.41537 1.61377 6.00759L5.68392 8.35101C6.94814 6.17204 9.30184 4.69712 11.9999 4.69712Z" fill="#FF4B26"/>
<path d="M16.6352 6.36218C16.9487 6.61914 17.4009 6.59858 17.6836 6.31593L19.8985 4.10099C20.2223 3.77723 20.1966 3.2479 19.8523 2.94983C17.7401 1.11004 14.9907 0 11.9998 0V4.69712C13.7573 4.69712 15.3761 5.31895 16.6352 6.36218Z" fill="#D93F21"/>
</svg>
