<svg width="32" height="32" viewBox="0 0 32 32" fill="none" xmlns="http://www.w3.org/2000/svg">
<g filter="url(#filter0_d_684_41550)">
<path d="M27.0953 9.91504H17.3053C16.8736 9.91504 16.5242 10.2645 16.5242 10.6962V13.8259C16.5242 14.2576 16.8736 14.607 17.3053 14.607H22.8195C22.2183 16.1744 21.0877 17.4849 19.6539 18.3174L22.0024 22.3876C25.7694 20.2086 27.9997 16.38 27.9997 12.0991C27.9997 11.4876 27.9535 11.0508 27.8661 10.5626C27.7942 10.1874 27.4704 9.91504 27.0953 9.91504Z" fill="#167EE6"/>
<path d="M15.9999 19.3023C13.3018 19.3023 10.9481 17.8274 9.68392 15.6484L5.61377 17.9919C7.68482 21.5841 11.5648 23.9994 15.9999 23.9994C18.1788 23.9994 20.2293 23.4136 22.0023 22.3909V22.3858L19.6537 18.3156C18.5745 18.9426 17.3309 19.3023 15.9999 19.3023Z" fill="#12B347"/>
<path d="M21.9971 22.3897V22.3846L19.6485 18.3145C18.5744 18.9363 17.3308 19.3012 15.9998 19.3012V23.9983C18.1787 23.9983 20.2292 23.4124 21.9971 22.3897Z" fill="#0F993E"/>
<path d="M8.69712 12C8.69712 10.669 9.062 9.4253 9.68383 8.35123L5.61367 6.00781C4.58586 7.77052 4 9.81587 4 12C4 14.1841 4.58586 16.2294 5.61367 17.9922L9.68383 15.6487C9.05686 14.5747 8.69712 13.331 8.69712 12Z" fill="#FFD500"/>
<path d="M15.9999 4.69712C17.7574 4.69712 19.3762 5.32409 20.6353 6.36218C20.9488 6.61914 21.401 6.59858 21.6837 6.31593L23.8986 4.10099C24.2224 3.77723 24.1967 3.2479 23.8524 2.94983C21.7402 1.11004 18.9908 0 15.9999 0C11.5648 0 7.68482 2.41537 5.61377 6.00759L9.68392 8.35101C10.9481 6.17204 13.3018 4.69712 15.9999 4.69712Z" fill="#FF4B26"/>
<path d="M20.6352 6.36218C20.9487 6.61914 21.4009 6.59858 21.6836 6.31593L23.8985 4.10099C24.2223 3.77723 24.1966 3.2479 23.8523 2.94983C21.7401 1.11004 18.9907 0 15.9998 0V4.69712C17.7573 4.69712 19.3761 5.31895 20.6352 6.36218Z" fill="#D93F21"/>
</g>
<defs>
<filter id="filter0_d_684_41550" x="0" y="0" width="31.9998" height="31.999" filterUnits="userSpaceOnUse" color-interpolation-filters="sRGB">
<feFlood flood-opacity="0" result="BackgroundImageFix"/>
<feColorMatrix in="SourceAlpha" type="matrix" values="0 0 0 0 0 0 0 0 0 0 0 0 0 0 0 0 0 0 127 0" result="hardAlpha"/>
<feOffset dy="4"/>
<feGaussianBlur stdDeviation="2"/>
<feComposite in2="hardAlpha" operator="out"/>
<feColorMatrix type="matrix" values="0 0 0 0 0 0 0 0 0 0 0 0 0 0 0 0 0 0 0.25 0"/>
<feBlend mode="normal" in2="BackgroundImageFix" result="effect1_dropShadow_684_41550"/>
<feBlend mode="normal" in="SourceGraphic" in2="effect1_dropShadow_684_41550" result="shape"/>
</filter>
</defs>
</svg>
