<svg width="24" height="24" viewBox="0 0 24 24" fill="none" xmlns="http://www.w3.org/2000/svg">
<path d="M12.0005 0C5.37502 0 0 5.36823 0 11.9942C0 18.6264 5.37502 24.0009 12.0004 24.0009C18.6295 24.0009 24 18.6264 24 11.9942C24.0001 5.36823 18.6295 0 12.0005 0ZM12.8557 18.6716C12.5769 18.9196 12.2539 19.0443 11.888 19.0443C11.5094 19.0443 11.1792 18.9218 10.8973 18.6765C10.615 18.4316 10.4735 18.0888 10.4735 17.6483C10.4735 17.2575 10.6104 16.9286 10.8833 16.6621C11.1562 16.3955 11.4909 16.2623 11.888 16.2623C12.2788 16.2623 12.6077 16.3955 12.8747 16.6621C13.1412 16.9286 13.2749 17.2575 13.2749 17.6483C13.2744 18.0824 13.1348 18.4236 12.8557 18.6716ZM16.331 10.0557C16.1169 10.4528 15.8626 10.7952 15.5676 11.0839C15.2734 11.3725 14.7445 11.8577 13.981 12.5399C13.7704 12.7323 13.601 12.9013 13.4741 13.0467C13.3472 13.1927 13.2523 13.3259 13.1904 13.447C13.128 13.568 13.0802 13.6891 13.0463 13.8102C13.0124 13.9308 12.9614 14.1436 12.8922 14.4476C12.7748 15.0927 12.4057 15.4152 11.7854 15.4152C11.4629 15.4152 11.1918 15.31 10.9709 15.099C10.7509 14.888 10.6411 14.575 10.6411 14.1594C10.6411 13.6385 10.722 13.1872 10.8832 12.8055C11.0436 12.4237 11.2582 12.089 11.5248 11.8003C11.7918 11.5117 12.1513 11.1692 12.6044 10.7721C13.0015 10.4247 13.2884 10.1627 13.465 9.98602C13.6421 9.80896 13.7908 9.61199 13.9114 9.39513C14.0329 9.17783 14.0926 8.94246 14.0926 8.68815C14.0926 8.19168 13.9087 7.77336 13.5392 7.43229C13.1701 7.09121 12.6939 6.92043 12.1107 6.92043C11.4281 6.92043 10.9258 7.09255 10.6032 7.43679C10.2806 7.78103 10.0083 8.28789 9.78461 8.95786C9.5732 9.65901 9.17294 10.0095 8.58427 10.0095C8.23687 10.0095 7.9437 9.8871 7.70472 9.64223C7.46619 9.39736 7.34692 9.1322 7.34692 8.84671C7.34692 8.2576 7.53621 7.66037 7.91436 7.05548C8.29294 6.45059 8.84498 5.94956 9.57092 5.55292C10.2964 5.15582 11.1435 4.95703 12.1107 4.95703C13.0102 4.95703 13.8039 5.12325 14.4924 5.45532C15.1809 5.78689 15.713 6.23823 16.0884 6.80922C16.4634 7.37977 16.6513 8.00006 16.6513 8.67003C16.6522 9.19639 16.5451 9.65857 16.331 10.0557Z" fill="white"/>
</svg>
