<svg width="50" height="50" viewBox="0 0 50 50" fill="none" xmlns="http://www.w3.org/2000/svg">
<path d="M40.1288 0H9.87122C4.4195 0 0 4.4195 0 9.87122V40.1288C0 45.5805 4.4195 50 9.87122 50H40.1288C45.5805 50 50 45.5805 50 40.1288V9.87122C50 4.4195 45.5805 0 40.1288 0Z" fill="#2C2B87"/>
<path d="M10.9487 20.1243L18.1031 15.734L10.9487 11.3438V20.1243Z" fill="#FEB903"/>
<path d="M10.9487 46.3218H18.1031V18.8984L10.9487 23.2056V46.3218Z" fill="white"/>
<path d="M31.8965 23.2051V46.3218H39.0508V18.8984L31.8965 23.2051Z" fill="white"/>
<path d="M21.4224 46.3216H28.5767V3.67773L21.4224 9.59389V46.3216Z" fill="white"/>
</svg>
