<svg width="23" height="23" viewBox="0 0 23 23" fill="none" xmlns="http://www.w3.org/2000/svg">
<path d="M21.9903 11.5398C21.9903 13.6467 21.3655 15.7064 20.1949 17.4583C19.0244 19.2102 17.3606 20.5756 15.414 21.3819C13.4674 22.1882 11.3254 22.3992 9.25894 21.9881C7.19246 21.5771 5.29427 20.5625 3.80441 19.0726C2.31456 17.5827 1.29995 15.6846 0.888904 13.6181C0.477854 11.5516 0.68882 9.40961 1.49512 7.46302C2.30143 5.51643 3.66685 3.85265 5.41874 2.68208C7.17062 1.51151 9.23028 0.886719 11.3372 0.886719C14.1626 0.886719 16.8723 2.00909 18.8701 4.00692C20.8679 6.00475 21.9903 8.7144 21.9903 11.5398Z" stroke="white" stroke-linecap="round" stroke-linejoin="round"/>
<path d="M7.07605 13.6699C7.59289 14.3089 8.24064 14.8296 8.97569 15.1972C9.71074 15.5647 10.516 15.7704 11.3373 15.8005C12.1585 15.7704 12.9638 15.5647 13.6988 15.1972C14.4339 14.8296 15.0816 14.3089 15.5985 13.6699" stroke="white" stroke-linecap="round" stroke-linejoin="round"/>
<path d="M8.14185 8.34473H8.15179" stroke="white" stroke-width="2" stroke-linecap="round" stroke-linejoin="round"/>
<path d="M14.5336 8.34473H14.5436" stroke="white" stroke-width="2" stroke-linecap="round" stroke-linejoin="round"/>
</svg>
