<svg width="26" height="23" viewBox="0 0 26 23" fill="none" xmlns="http://www.w3.org/2000/svg">
<path opacity="0.71" d="M25.958 5.678V20.278C25.958 20.5976 25.895 20.9141 25.7727 21.2095C25.6504 21.5048 25.4711 21.7731 25.2451 21.9991C25.0191 22.2251 24.7508 22.4044 24.4555 22.5267C24.1601 22.649 23.8436 22.712 23.524 22.712H2.434C1.78864 22.712 1.16969 22.4557 0.713256 21.9995C0.256821 21.5432 0.000265145 20.9244 0 20.279L0 5.678C0.000265145 5.03264 0.256821 4.4138 0.713256 3.95755C1.16969 3.5013 1.78864 3.245 2.434 3.245H6.895L7.519 1.577C7.69269 1.11368 8.00369 0.714419 8.41041 0.43261C8.81713 0.150801 9.30019 -0.000128984 9.795 8.27094e-08H16.158C16.6528 -0.000128984 17.1359 0.150801 17.5426 0.43261C17.9493 0.714419 18.2603 1.11368 18.434 1.577L19.063 3.245H23.524C24.1694 3.245 24.7883 3.5013 25.2447 3.95755C25.7012 4.4138 25.9577 5.03264 25.958 5.678ZM19.063 12.978C19.063 11.7747 18.7062 10.5984 18.0377 9.59791C17.3691 8.5974 16.419 7.8176 15.3072 7.35712C14.1955 6.89663 12.9723 6.77615 11.7921 7.0109C10.6119 7.24566 9.52782 7.8251 8.67696 8.67596C7.8261 9.52682 7.24665 10.6109 7.0119 11.7911C6.77715 12.9713 6.89763 14.1945 7.35812 15.3062C7.8186 16.418 8.5984 17.3681 9.59891 18.0367C10.5994 18.7052 11.7757 19.062 12.979 19.062C14.592 19.0607 16.1386 18.4194 17.2792 17.2789C18.4199 16.1385 19.0614 14.592 19.063 12.979V12.978ZM17.441 12.978C17.441 13.8603 17.1794 14.7228 16.6892 15.4564C16.199 16.19 15.5023 16.7618 14.6872 17.0994C13.872 17.4371 12.9751 17.5254 12.1097 17.3533C11.2444 17.1812 10.4495 16.7563 9.8256 16.1324C9.20171 15.5085 8.77685 14.7136 8.60472 13.8483C8.43259 12.9829 8.52093 12.086 8.85857 11.2708C9.19622 10.4557 9.76799 9.759 10.5016 9.26881C11.2352 8.77863 12.0977 8.517 12.98 8.517C14.1626 8.51912 15.2961 8.98996 16.1321 9.82635C16.9681 10.6627 17.4384 11.7964 17.44 12.979L17.441 12.978Z" fill="white"/>
</svg>
