<svg width="17" height="17" viewBox="0 0 17 17" fill="none" xmlns="http://www.w3.org/2000/svg">
<path d="M13.896 7.448C13.896 8.72312 13.5179 9.96962 12.8096 11.0299C12.1013 12.0902 11.0945 12.9166 9.91647 13.4048C8.73848 13.8929 7.44221 14.0209 6.19153 13.7724C4.94085 13.5239 3.79192 12.9102 2.88999 12.0088C1.98806 11.1075 1.37364 9.95892 1.12439 8.70839C0.875138 7.45787 1.00226 6.16152 1.48968 4.98323C1.9771 3.80494 2.80293 2.79763 3.86278 2.08863C4.92262 1.37963 6.16888 1.00079 7.444 1C8.2911 0.999476 9.13 1.16587 9.91277 1.48968C10.6955 1.81348 11.4068 2.28836 12.006 2.88716C12.6052 3.48597 13.0805 4.19697 13.4048 4.97953C13.7291 5.7621 13.896 6.6009 13.896 7.448V7.448Z" stroke="white" stroke-width="1.7" stroke-linecap="round" stroke-linejoin="round"/>
<path d="M15.505 15.5089L11.999 12.0029" stroke="white" stroke-width="1.7" stroke-linecap="round" stroke-linejoin="round"/>
</svg>
