<svg width="30" height="22" viewBox="0 0 30 22" fill="none" xmlns="http://www.w3.org/2000/svg">
<path d="M27.9997 11.9823H4.55172L11.609 19.0396C11.7364 19.1626 11.838 19.3098 11.9079 19.4724C11.9777 19.6351 12.0145 19.8101 12.016 19.9871C12.0176 20.1642 11.9839 20.3397 11.9168 20.5036C11.8498 20.6674 11.7508 20.8163 11.6256 20.9415C11.5004 21.0667 11.3515 21.1657 11.1877 21.2327C11.0238 21.2998 10.8482 21.3335 10.6712 21.332C10.4941 21.3304 10.3192 21.2937 10.1565 21.2238C9.99384 21.1539 9.84671 21.0523 9.72372 20.925L0.390382 11.5916C0.140421 11.3416 0 11.0025 0 10.649C0 10.2954 0.140421 9.95635 0.390382 9.70631L9.72372 0.372979C9.97518 0.130103 10.312 -0.00429026 10.6616 -0.00125186C11.0112 0.00178655 11.3456 0.142013 11.5928 0.389222C11.84 0.636434 11.9802 0.970851 11.9833 1.32045C11.9863 1.67004 11.8519 2.00685 11.609 2.25832L4.55172 9.31565H27.9997C28.3533 9.31565 28.6925 9.45612 28.9425 9.70617C29.1926 9.95622 29.333 10.2954 29.333 10.649C29.333 11.0026 29.1926 11.3417 28.9425 11.5918C28.6925 11.8418 28.3533 11.9823 27.9997 11.9823Z" fill="white"/>
</svg>
