<svg width="11" height="12" viewBox="0 0 11 12" fill="none" xmlns="http://www.w3.org/2000/svg">
<path d="M9.16683 5C9.16683 7.209 5.50016 11 5.50016 11C5.50016 11 1.8335 7.209 1.8335 5C1.8335 3.93913 2.2198 2.92172 2.90744 2.17157C3.59507 1.42143 4.5277 1 5.50016 1C6.47262 1 7.40525 1.42143 8.09289 2.17157C8.78052 2.92172 9.16683 3.93913 9.16683 5V5Z" fill="white"/>
<path d="M5.5002 5.4002C5.64606 5.4002 5.78596 5.33698 5.8891 5.22446C5.99225 5.11194 6.0502 4.95933 6.0502 4.8002C6.0502 4.64107 5.99225 4.48845 5.8891 4.37593C5.78596 4.26341 5.64606 4.2002 5.5002 4.2002C5.35433 4.2002 5.21443 4.26341 5.11129 4.37593C5.00814 4.48845 4.9502 4.64107 4.9502 4.8002C4.9502 4.95933 5.00814 5.11194 5.11129 5.22446C5.21443 5.33698 5.35433 5.4002 5.5002 5.4002V5.4002Z" fill="#EFB73E"/>
</svg>
