<svg width="32" height="43" viewBox="0 0 32 43" fill="none" xmlns="http://www.w3.org/2000/svg">
<path d="M4 16H5.33333V10.6667C5.33333 4.784 10.1173 0 16 0C21.8827 0 26.6667 4.784 26.6667 10.6667V16H28C30.2044 16 32 17.7938 32 20V38.6667C32 40.8729 30.2044 42.6667 28 42.6667H4C1.79556 42.6667 -2.38419e-07 40.8729 -2.38419e-07 38.6667V20C-2.38419e-07 17.7938 1.79556 16 4 16ZM23.1111 10.6667C23.1111 6.74489 19.9218 3.55556 16 3.55556C12.0782 3.55556 8.88889 6.74489 8.88889 10.6667V16H23.1111V10.6667ZM14.2222 29.728V33.7778C14.2222 34.7591 15.0169 35.5556 16 35.5556C16.9831 35.5556 17.7778 34.7591 17.7778 33.7778V29.728C18.8356 29.1111 19.5556 27.9769 19.5556 26.6667C19.5556 24.7058 17.9609 23.1111 16 23.1111C14.0391 23.1111 12.4444 24.7058 12.4444 26.6667C12.4444 27.9769 13.1644 29.1111 14.2222 29.728Z" fill="white"/>
</svg>
