<svg width="18" height="20" viewBox="0 0 18 20" fill="none" xmlns="http://www.w3.org/2000/svg">
<path d="M8.596 18.149H3.575C2.91963 18.1482 2.29133 17.8875 1.82791 17.4241C1.36449 16.9607 1.10379 16.3324 1.103 15.677V3.577C1.103 2.92111 1.36335 2.29204 1.82685 1.82797C2.29035 1.3639 2.91911 1.1028 3.575 1.102H8.675C8.75117 1.1085 8.82786 1.09911 8.90021 1.07442C8.97256 1.04974 9.03899 1.01029 9.0953 0.958583C9.15161 0.906876 9.19656 0.844038 9.22732 0.774049C9.25807 0.70406 9.27395 0.628447 9.27395 0.552C9.27395 0.475553 9.25807 0.39994 9.22732 0.329951C9.19656 0.259962 9.15161 0.197124 9.0953 0.145418C9.03899 0.0937113 8.97256 0.0542645 8.90021 0.0295767C8.82786 0.00488894 8.75117 -0.00450163 8.675 0.00200005H3.575C2.62718 0.00305878 1.71848 0.38005 1.04826 1.05026C0.37805 1.72048 0.00105873 2.62918 0 3.577V15.677C0.00105873 16.6248 0.37805 17.5335 1.04826 18.2037C1.71848 18.874 2.62718 19.2509 3.575 19.252H8.596C8.73377 19.2402 8.86211 19.1772 8.95564 19.0754C9.04916 18.9735 9.10105 18.8403 9.10105 18.702C9.10105 18.5637 9.04916 18.4305 8.95564 18.3286C8.86211 18.2268 8.73377 18.1638 8.596 18.152V18.149Z" fill="white"/>
<path d="M17.681 9.23901L14.176 5.73402C14.0713 5.63743 13.9332 5.58511 13.7907 5.588C13.6482 5.5909 13.5124 5.64879 13.4116 5.74957C13.3108 5.85034 13.2529 5.98617 13.25 6.12865C13.2471 6.27114 13.2995 6.40923 13.396 6.51402L15.962 9.08001H4.77104C4.63327 9.09177 4.50493 9.15481 4.41141 9.25666C4.31788 9.35851 4.26599 9.49174 4.26599 9.63001C4.26599 9.76829 4.31788 9.90152 4.41141 10.0034C4.50493 10.1052 4.63327 10.1683 4.77104 10.18H15.961L13.395 12.746C13.3184 12.8233 13.2662 12.9216 13.245 13.0284C13.2239 13.1352 13.2347 13.2459 13.2761 13.3466C13.3175 13.4474 13.3876 13.5337 13.4778 13.5947C13.568 13.6558 13.6741 13.6889 13.783 13.69C13.8554 13.6903 13.927 13.676 13.9936 13.648C14.0603 13.62 14.1206 13.5789 14.171 13.527L17.676 10.022C17.7281 9.97111 17.7696 9.9104 17.798 9.84338C17.8265 9.77636 17.8414 9.70436 17.8418 9.63155C17.8423 9.55875 17.8283 9.48656 17.8007 9.41918C17.7731 9.3518 17.7324 9.29057 17.681 9.23901Z" fill="white"/>
</svg>
