<svg width="151" height="135" viewBox="0 0 151 135" fill="none" xmlns="http://www.w3.org/2000/svg">
<path d="M32.8309 75.6991C25.7592 75.6991 20.2561 77.9419 16.2164 82.3215V49.2285L0.884766 56.7971V131.546H14.9797V125.653C16.8524 128.168 19.3074 130.19 22.1338 131.546C25.2341 133.055 28.8481 133.849 32.8309 133.849C36.6178 133.871 40.3658 133.085 43.8257 131.546C53.4421 127.227 59.7704 117.21 59.7704 104.773C59.7718 88.0474 48.3234 75.6991 32.8309 75.6991ZM30.0245 120.039C22.3887 120.039 15.9897 114.764 15.9897 104.772C15.9897 94.8928 22.2789 89.3937 30.0245 89.3937C38.1064 89.3937 44.3925 95.5662 44.3925 104.662C44.3938 113.977 38.2178 120.039 30.0259 120.039H30.0245Z" fill="white"/>
<path d="M66.6987 134.307H82.5967V50.1826L66.6987 58.1117V134.307Z" fill="white"/>
<path d="M93.2344 134.695H109.204V0.306641L93.2344 10.7599V134.695Z" fill="white"/>
<path d="M150.445 119.442C149.682 119.506 148.878 119.573 148.166 119.623H148.163C145.03 119.863 143.724 119.881 143.399 119.881C136.435 119.881 133.722 117.634 133.722 111.868V91.4193L148.011 97.1194L149.228 97.6078V79.3323L133.722 73.2151V59.8602L117.748 51.8975V113.196C117.748 117.798 118.651 121.738 120.43 124.907C122.189 128.03 124.899 130.511 128.166 131.987C131.466 133.526 135.51 134.307 140.187 134.307C143.704 134.285 147.205 133.834 150.612 132.963L151 132.866V119.396L150.445 119.442Z" fill="white"/>
<path d="M65.8535 51.9432L83.0305 43.366L67.6047 31.9365L65.8535 51.9432Z" fill="#FEB903"/>
</svg>
