<svg width="17" height="11" viewBox="0 0 17 11" fill="none" xmlns="http://www.w3.org/2000/svg">
<path d="M10.8408 5.08363L16.3495 8.18524V1.84766L10.8408 5.08363Z" fill="white"/>
<path d="M0 1.84766V8.18524L5.50872 5.08363L0 1.84766Z" fill="white"/>
<path d="M15.3316 0H1.01897C0.515894 0 0.100853 0.335915 0.0253906 0.772603L8.17528 5.55379L16.3252 0.772603C16.2497 0.335915 15.8221 0 15.3316 0Z" fill="white"/>
<path d="M9.89796 5.63281L8.45161 6.4838C8.36357 6.52858 8.27553 6.56218 8.17491 6.56218C8.0743 6.56218 7.97368 6.53978 7.89822 6.4838L6.45187 5.63281L0.0375977 9.24949C0.11306 9.68618 0.528101 10.0109 1.03118 10.0221H15.3438C15.8469 10.0221 16.2619 9.69738 16.3374 9.24949L9.89796 5.63281Z" fill="white"/>
</svg>
