<svg width="17" height="11" viewBox="0 0 17 11" fill="none" xmlns="http://www.w3.org/2000/svg">
<path d="M11.2119 5.08363L16.7206 8.18524V1.84766L11.2119 5.08363Z" fill="white"/>
<path d="M0.371094 1.84766V8.18524L5.87982 5.08363L0.371094 1.84766Z" fill="white"/>
<path d="M15.7024 0H1.38982C0.886743 0 0.471702 0.335915 0.39624 0.772603L8.54613 5.55379L16.696 0.772603C16.6206 0.335915 16.1929 0 15.7024 0Z" fill="white"/>
<path d="M10.2691 5.63281L8.8227 6.4838C8.73466 6.52858 8.64662 6.56218 8.54601 6.56218C8.44539 6.56218 8.34478 6.53978 8.26932 6.4838L6.82296 5.63281L0.408691 9.24949C0.484153 9.68618 0.899194 10.0109 1.40227 10.0221H15.7149C16.218 10.0221 16.633 9.69738 16.7085 9.24949L10.2691 5.63281Z" fill="white"/>
</svg>
