<svg width="50" height="50" viewBox="0 0 50 50" fill="none" xmlns="http://www.w3.org/2000/svg">
<g filter="url(#filter0_b_851_22259)">
<path d="M0 24.15C0 15.6076 0 11.3365 1.6888 8.08538C3.11193 5.34574 5.34574 3.11193 8.08538 1.6888C11.3365 0 15.6076 0 24.15 0H25.85C34.3924 0 38.6635 0 41.9146 1.6888C44.6543 3.11193 46.8881 5.34574 48.3112 8.08538C50 11.3365 50 15.6076 50 24.15V25.85C50 34.3924 50 38.6635 48.3112 41.9146C46.8881 44.6543 44.6543 46.8881 41.9146 48.3112C38.6635 50 34.3924 50 25.85 50H24.15C15.6076 50 11.3365 50 8.08538 48.3112C5.34574 46.8881 3.11193 44.6543 1.6888 41.9146C0 38.6635 0 34.3924 0 25.85V24.15Z" fill="white" fill-opacity="0.5"/>
</g>
<path d="M30.0075 15H20.0025C17.2411 15 15 17.2311 15 19.9825V26.966C15 29.7174 17.2411 31.9485 20.0025 31.9485H21.5033C21.7734 31.9485 22.1336 32.1286 22.3037 32.3487L23.8044 34.3397C24.4647 35.2201 25.5453 35.2201 26.2056 34.3397L27.7064 32.3487C27.8964 32.0985 28.1966 31.9485 28.5068 31.9485H30.0075C32.7689 31.9485 35.01 29.7174 35.01 26.966V19.9825C35.01 17.2311 32.7689 15 30.0075 15ZM21.003 25.005C20.4427 25.005 20.0025 24.5548 20.0025 24.0045C20.0025 23.4542 20.4527 23.004 21.003 23.004C21.5533 23.004 22.0035 23.4542 22.0035 24.0045C22.0035 24.5548 21.5633 25.005 21.003 25.005ZM25.005 25.005C24.4447 25.005 24.0045 24.5548 24.0045 24.0045C24.0045 23.4542 24.4547 23.004 25.005 23.004C25.5553 23.004 26.0055 23.4542 26.0055 24.0045C26.0055 24.5548 25.5653 25.005 25.005 25.005ZM29.007 25.005C28.4467 25.005 28.0065 24.5548 28.0065 24.0045C28.0065 23.4542 28.4567 23.004 29.007 23.004C29.5573 23.004 30.0075 23.4542 30.0075 24.0045C30.0075 24.5548 29.5673 25.005 29.007 25.005Z" fill="#EFB73E"/>
<defs>
<filter id="filter0_b_851_22259" x="-30" y="-30" width="110" height="110" filterUnits="userSpaceOnUse" color-interpolation-filters="sRGB">
<feFlood flood-opacity="0" result="BackgroundImageFix"/>
<feGaussianBlur in="BackgroundImageFix" stdDeviation="15"/>
<feComposite in2="SourceAlpha" operator="in" result="effect1_backgroundBlur_851_22259"/>
<feBlend mode="normal" in="SourceGraphic" in2="effect1_backgroundBlur_851_22259" result="shape"/>
</filter>
</defs>
</svg>
