<svg width="50" height="50" viewBox="0 0 50 50" fill="none" xmlns="http://www.w3.org/2000/svg">
<g filter="url(#filter0_b_800_22064)">
<path d="M0 24.15C0 15.6076 0 11.3365 1.6888 8.08538C3.11193 5.34574 5.34574 3.11193 8.08538 1.6888C11.3365 0 15.6076 0 24.15 0H25.85C34.3924 0 38.6635 0 41.9146 1.6888C44.6543 3.11193 46.8881 5.34574 48.3112 8.08538C50 11.3365 50 15.6076 50 24.15V25.85C50 34.3924 50 38.6635 48.3112 41.9146C46.8881 44.6543 44.6543 46.8881 41.9146 48.3112C38.6635 50 34.3924 50 25.85 50H24.15C15.6076 50 11.3365 50 8.08538 48.3112C5.34574 46.8881 3.11193 44.6543 1.6888 41.9146C0 38.6635 0 34.3924 0 25.85V24.15Z" fill="white" fill-opacity="0.5"/>
</g>
<path d="M22.7029 32.0477L22.703 32.0477L22.6993 32.0429C22.5564 31.858 22.3571 31.7151 22.1646 31.6188C21.973 31.523 21.738 31.4485 21.5033 31.4485H20.0025C17.5153 31.4485 15.5 29.4393 15.5 26.966V19.9825C15.5 17.5092 17.5153 15.5 20.0025 15.5H30.0075C32.4947 15.5 34.51 17.5092 34.51 19.9825V26.966C34.51 29.4393 32.4947 31.4485 30.0075 31.4485H28.5068C28.038 31.4485 27.5915 31.6735 27.3083 32.0461L27.3071 32.0477L25.8063 34.0387L25.8056 34.0397C25.556 34.3725 25.2611 34.5 25.005 34.5C24.7489 34.5 24.454 34.3725 24.2044 34.0397L24.2037 34.0387L22.7029 32.0477ZM19.5025 24.0045C19.5025 24.8277 20.1633 25.505 21.003 25.505C21.8427 25.505 22.5035 24.8277 22.5035 24.0045C22.5035 23.1781 21.8294 22.504 21.003 22.504C20.1766 22.504 19.5025 23.1781 19.5025 24.0045ZM23.5045 24.0045C23.5045 24.8277 24.1653 25.505 25.005 25.505C25.8447 25.505 26.5055 24.8277 26.5055 24.0045C26.5055 23.1781 25.8314 22.504 25.005 22.504C24.1786 22.504 23.5045 23.1781 23.5045 24.0045ZM27.5065 24.0045C27.5065 24.8277 28.1673 25.505 29.007 25.505C29.8467 25.505 30.5075 24.8277 30.5075 24.0045C30.5075 23.1781 29.8334 22.504 29.007 22.504C28.1806 22.504 27.5065 23.1781 27.5065 24.0045Z" fill="white" stroke="white"/>
<defs>
<filter id="filter0_b_800_22064" x="-30" y="-30" width="110" height="110" filterUnits="userSpaceOnUse" color-interpolation-filters="sRGB">
<feFlood flood-opacity="0" result="BackgroundImageFix"/>
<feGaussianBlur in="BackgroundImageFix" stdDeviation="15"/>
<feComposite in2="SourceAlpha" operator="in" result="effect1_backgroundBlur_800_22064"/>
<feBlend mode="normal" in="SourceGraphic" in2="effect1_backgroundBlur_800_22064" result="shape"/>
</filter>
</defs>
</svg>
