<svg width="19" height="17" viewBox="0 0 19 17" fill="none" xmlns="http://www.w3.org/2000/svg">
<path d="M18.2426 9.56342C17.7755 9.36455 17.2578 9.45959 16.8917 9.81153L14.9074 11.7196C14.7985 12.8464 13.8464 13.7305 12.6914 13.7305H9.35156C9.04415 13.7305 8.79492 13.4812 8.79492 13.1738C8.79492 12.8664 9.04415 12.6172 9.35156 12.6172H12.6677C13.2735 12.6172 13.7862 12.1431 13.8042 11.5376C13.8229 10.9084 13.3165 10.3906 12.6914 10.3906H9.66851L8.32308 9.71794C7.74666 9.42968 7.10129 9.27734 6.45677 9.27734C5.70059 9.27734 4.95811 9.483 4.3097 9.87206L3.59961 10.2981V15.6104L7.15057 16.6757C7.20245 16.6913 7.25637 16.6992 7.31055 16.6992H12.9184C14.0073 16.6992 15.0177 16.2082 15.6905 15.3519L18.734 11.4784C18.9055 11.26 19 10.9868 19 10.7091C19 10.2013 18.7098 9.76233 18.2426 9.56342V9.56342Z" fill="white"/>
<path d="M2.48633 11.5039V10.5762C2.48633 9.85885 1.90482 9.27734 1.1875 9.27734H0.556641C0.249227 9.27734 0 9.52657 0 9.83398V11.5039H2.48633Z" fill="white"/>
<path d="M0 12.6172V16.1426C0 16.45 0.249227 16.6992 0.556641 16.6992H1.1875C1.90482 16.6992 2.48633 16.1177 2.48633 15.4004V12.6172H0Z" fill="white"/>
<path d="M16.1797 2.28613H15.2484C15.0255 2.28613 14.8241 2.4191 14.7365 2.62409L14.5098 3.15483H13.0254L12.7987 2.62409C12.7111 2.4191 12.5097 2.28613 12.2868 2.28613H11.3555V3.15483C11.3555 3.46224 11.1062 3.71147 10.7988 3.71147C10.4914 3.71147 10.2422 3.46224 10.2422 3.15483V2.28613H8.94336V4.88379H15.7163C15.8912 4.88379 16.056 4.80155 16.1612 4.66173L16.6246 4.04564C16.6971 3.94919 16.7363 3.83174 16.7363 3.71106V2.84281C16.7363 2.53536 16.4871 2.28613 16.1797 2.28613V2.28613Z" fill="white"/>
<path d="M6.84627 0.677505L4.33861 0.0505795C3.83629 -0.0749615 3.31405 0.0357358 2.90592 0.354394C2.49779 0.673052 2.26367 1.1528 2.26367 1.67063V3.02798H3.93359C4.24101 3.02798 4.49023 3.2772 4.49023 3.58462C4.49023 3.89203 4.24101 4.14126 3.93359 4.14126H2.26367V5.49861C2.26367 6.01643 2.49776 6.49618 2.90589 6.81484C3.2038 7.04744 3.56246 7.16927 3.92985 7.16927C4.06578 7.16927 4.2029 7.15261 4.33861 7.11869L6.84627 6.49177C7.42551 6.34693 7.83008 5.82877 7.83008 5.23172V1.93755C7.83008 1.34043 7.42551 0.822306 6.84627 0.677505V0.677505Z" fill="white"/>
</svg>
