<svg width="14" height="17" viewBox="0 0 14 17" fill="none" xmlns="http://www.w3.org/2000/svg">
<path d="M6.57334 7.70698C7.63213 7.70698 8.54897 7.32723 9.29809 6.57799C10.0472 5.82888 10.4269 4.91229 10.4269 3.85337C10.4269 2.79481 10.0472 1.8781 9.29796 1.12874C8.54872 0.379746 7.63201 0 6.57334 0C5.51442 0 4.59783 0.379746 3.84871 1.12886C3.09959 1.87798 2.71973 2.79469 2.71973 3.85337C2.71973 4.91229 3.09959 5.829 3.84883 6.57811C4.59807 7.32711 5.51478 7.70698 6.57334 7.70698Z" fill="white"/>
<path d="M13.316 12.3049C13.2944 11.9931 13.2507 11.653 13.1863 11.2939C13.1214 10.9321 13.0378 10.5901 12.9377 10.2775C12.8343 9.95437 12.6937 9.63529 12.5199 9.32952C12.3394 9.01215 12.1275 8.7358 11.8898 8.50839C11.6411 8.27048 11.3367 8.07921 10.9846 7.93969C10.6338 7.8009 10.245 7.73059 9.82917 7.73059C9.66585 7.73059 9.5079 7.7976 9.20286 7.9962C9.01512 8.11864 8.79552 8.26023 8.55042 8.41684C8.34083 8.55038 8.05691 8.6755 7.70622 8.78877C7.36407 8.89949 7.01667 8.95564 6.67379 8.95564C6.33091 8.95564 5.98363 8.89949 5.64112 8.78877C5.29079 8.67562 5.00687 8.5505 4.79753 8.41696C4.55474 8.26182 4.33502 8.12022 4.14448 7.99608C3.8398 7.79748 3.68173 7.73047 3.51841 7.73047C3.10241 7.73047 2.71375 7.8009 2.36306 7.93981C2.01127 8.07909 1.70671 8.27036 1.45782 8.50851C1.22016 8.73604 1.00814 9.01227 0.827968 9.32952C0.654269 9.63529 0.51365 9.95425 0.410139 10.2776C0.310167 10.5902 0.226553 10.9321 0.161614 11.2939C0.0972859 11.6525 0.0535866 11.9927 0.0319811 12.3052C0.0107417 12.6114 0 12.9291 0 13.25C0 14.0852 0.265492 14.7613 0.789029 15.2599C1.3061 15.752 1.99027 16.0016 2.82227 16.0016H10.526C11.358 16.0016 12.042 15.7521 12.5592 15.2599C13.0828 14.7617 13.3483 14.0854 13.3483 13.2499C13.3482 12.9275 13.3373 12.6095 13.316 12.3049Z" fill="white"/>
</svg>
