<svg width="45" height="45" viewBox="0 0 45 45" fill="none" xmlns="http://www.w3.org/2000/svg">
<circle cx="22.5" cy="22.5" r="22.5" fill="black"/>
<circle cx="22.5" cy="22.5" r="17" stroke="white" stroke-width="5" stroke-dasharray="1 6"/>
<path d="M18.9361 16.107C18.8318 16.1664 18.7742 16.2826 18.7884 16.4015L19.6519 23.4166C19.6682 23.5477 19.7688 23.6524 19.8993 23.6735C20.0297 23.6948 20.1584 23.6275 20.2155 23.5084L21.5599 20.6943L24.6671 20.962C24.7987 20.9734 24.9219 20.8966 24.9699 20.7735C24.9735 20.7637 24.9768 20.7538 24.9795 20.7441C25.0109 20.6287 24.97 20.5039 24.8734 20.4298L19.2645 16.1289C19.1696 16.0562 19.0401 16.0475 18.9361 16.107Z" fill="#F51020"/>
<path d="M27.5207 23.9884L31.2267 30.1963L30.6343 30.55C30.5427 30.6047 30.4568 30.6365 30.3768 30.6455C30.2979 30.6499 30.2085 30.6334 30.1085 30.596L24.3965 28.3924C24.5264 28.5711 24.6392 28.7405 24.7349 28.9008L27.0108 32.7131L25.9933 33.3206L22.2873 27.1126L22.8927 26.7513C22.9413 26.7222 22.9845 26.7003 23.0223 26.6855C23.0612 26.6662 23.0978 26.656 23.1321 26.6549C23.1676 26.6493 23.2059 26.6516 23.247 26.662C23.2864 26.6695 23.3338 26.6839 23.3892 26.7052L29.1244 28.9183C29.056 28.8232 28.9899 28.7288 28.9261 28.6349C28.8623 28.541 28.8056 28.4525 28.756 28.3695L26.5032 24.5958L27.5207 23.9884Z" fill="white"/>
</svg>
