<svg width="17" height="14" viewBox="0 0 17 14" fill="none" xmlns="http://www.w3.org/2000/svg">
<g clip-path="url(#clip0_684_41533)">
<path d="M14.4831 9.3618C14.3003 9.49127 14.1166 9.61495 13.9323 9.7334L11.784 7.96423C11.9149 7.66271 11.9865 7.33811 11.9865 7.00001C11.9865 5.41689 10.4225 4.12891 8.50016 4.12891C8.0896 4.12891 7.69545 4.18784 7.32932 4.29566L5.71704 2.9679C6.65855 2.64984 7.59239 2.48829 8.50016 2.48829C9.58447 2.48829 10.7059 2.71787 11.8332 3.17065C12.7185 3.52626 13.6101 4.02003 14.4831 4.63822C15.9592 5.68346 16.8685 6.717 16.9064 6.7605C17.0314 6.90357 17.0314 7.09642 16.9064 7.23951C16.8684 7.28302 15.9592 8.31655 14.4831 9.3618Z" fill="white"/>
<path d="M8.50008 4.94947C9.8732 4.94947 10.9903 5.86945 10.9903 7.00025C10.9903 7.09863 10.9814 7.19532 10.965 7.29004L8.14819 4.97033C8.26324 4.95685 8.38062 4.94947 8.50008 4.94947Z" fill="white"/>
<path d="M16.8542 13.8799C16.6597 14.04 16.3443 14.04 16.1498 13.8799L12.2369 10.6575C12.1022 10.7179 11.9676 10.7754 11.8331 10.8294C10.7058 11.2822 9.58434 11.5118 8.50003 11.5118C7.41571 11.5118 6.29427 11.2822 5.16696 10.8294C4.2817 10.4738 3.39013 9.98001 2.51705 9.36182C1.04104 8.31658 0.131742 7.28304 0.0937573 7.23954C-0.0312524 7.09648 -0.0312524 6.90362 0.0937573 6.76053C0.131742 6.71703 1.04101 5.68346 2.51705 4.63824C2.96938 4.31797 3.42669 4.03143 3.88549 3.7799L0.145919 0.700197C-0.0485845 0.540045 -0.0485845 0.280334 0.145919 0.120154C0.243171 0.0400925 0.370605 3.33786e-05 0.498072 3.33786e-05C0.625539 3.33786e-05 0.753005 0.0400925 0.850224 0.120182L16.8541 13.2999C17.0487 13.46 17.0487 13.7197 16.8542 13.8799ZM5.0137 7.00003C5.0137 8.58316 6.57766 9.87113 8.50003 9.87113C9.28199 9.87113 10.0046 9.65801 10.5868 9.2986L9.87231 8.71017C9.47855 8.9252 9.00687 9.05082 8.50003 9.05082C7.12691 9.05082 6.00979 8.13083 6.00979 7.00003C6.00979 6.58266 6.16233 6.19421 6.42343 5.86992L5.7089 5.28148C5.27248 5.76095 5.0137 6.35606 5.0137 7.00003Z" fill="white"/>
</g>
<defs>
<clipPath id="clip0_684_41533">
<rect width="17" height="14" fill="white" transform="matrix(1 0 0 -1 0 14)"/>
</clipPath>
</defs>
</svg>
