<svg width="50" height="50" viewBox="0 0 50 50" fill="none" xmlns="http://www.w3.org/2000/svg">
<g filter="url(#filter0_b_800_22062)">
<path d="M0 24.15C0 15.6076 0 11.3365 1.6888 8.08538C3.11193 5.34574 5.34574 3.11193 8.08538 1.6888C11.3365 0 15.6076 0 24.15 0H25.85C34.3924 0 38.6635 0 41.9146 1.6888C44.6543 3.11193 46.8881 5.34574 48.3112 8.08538C50 11.3365 50 15.6076 50 24.15V25.85C50 34.3924 50 38.6635 48.3112 41.9146C46.8881 44.6543 44.6543 46.8881 41.9146 48.3112C38.6635 50 34.3924 50 25.85 50H24.15C15.6076 50 11.3365 50 8.08538 48.3112C5.34574 46.8881 3.11193 44.6543 1.6888 41.9146C0 38.6635 0 34.3924 0 25.85V24.15Z" fill="white" fill-opacity="0.5"/>
</g>
<path d="M29.0334 19.5333C29.0334 21.7609 27.2277 23.5666 25.0001 23.5666C22.7726 23.5666 20.9668 21.7609 20.9668 19.5333C20.9668 17.3058 22.7726 15.5 25.0001 15.5C27.2277 15.5 29.0334 17.3058 29.0334 19.5333Z" fill="white" stroke="white"/>
<path d="M17.5 33.1347C17.5 28.9927 20.8579 25.6348 25 25.6348C29.1421 25.6348 32.5 28.9927 32.5 33.1347C32.5 34.0368 31.7687 34.7681 30.8667 34.7681H19.1333C18.2313 34.7681 17.5 34.0368 17.5 33.1347Z" fill="white" stroke="white"/>
<defs>
<filter id="filter0_b_800_22062" x="-30" y="-30" width="110" height="110" filterUnits="userSpaceOnUse" color-interpolation-filters="sRGB">
<feFlood flood-opacity="0" result="BackgroundImageFix"/>
<feGaussianBlur in="BackgroundImageFix" stdDeviation="15"/>
<feComposite in2="SourceAlpha" operator="in" result="effect1_backgroundBlur_800_22062"/>
<feBlend mode="normal" in="SourceGraphic" in2="effect1_backgroundBlur_800_22062" result="shape"/>
</filter>
</defs>
</svg>
