<svg width="24" height="25" viewBox="0 0 24 25" fill="none" xmlns="http://www.w3.org/2000/svg">
<path d="M22.0676 7.41021L14.3322 0.31037C14.0781 0.107129 13.7745 0 13.4545 0C13.1345 0 12.8303 0.107129 12.5762 0.31037L4.84158 7.38902C4.23537 7.87314 4.13485 8.75737 4.62179 9.36536C5.10436 9.96969 5.98967 10.0726 6.59813 9.58515L13.4545 3.25659L20.3124 9.60704C20.8784 10.0628 21.8272 9.96453 22.2874 9.38589C22.7736 8.78044 22.6744 7.89485 22.0676 7.41021Z" fill="white"/>
<path d="M20.4863 0.00195312H17.6735C17.2849 0.00195312 16.9703 0.316449 16.9703 0.705162V0.816089L21.1895 4.70753V0.705162C21.1895 0.316449 20.8751 0.00195312 20.4863 0.00195312Z" fill="white"/>
<path d="M2.20335 11.2998H0.703209C0.314543 11.2998 0 11.6143 0 12.003V23.301C0 23.6897 0.314496 24.0042 0.703209 24.0042H2.20335C3.36663 24.0042 4.31293 23.0579 4.31293 21.8946V13.4094C4.31293 12.2461 3.36668 11.2998 2.20335 11.2998Z" fill="white"/>
<path d="M23.4259 12.9739C22.8492 12.552 22.0476 12.6364 21.5694 13.1568L17.7721 17.8822C17.5049 18.1635 16.9986 18.3323 16.7314 18.3323H10.6417C10.2479 18.3323 9.93848 18.0229 9.93848 17.629C9.93848 17.2352 10.2478 16.9258 10.6417 16.9258C13.792 16.9258 12.7653 16.9258 16.2673 16.9258C17.0408 16.9258 17.6736 16.293 17.6736 15.5195C17.6736 14.7459 17.0408 14.1131 16.2673 14.1131C12.9648 14.1131 16.1149 14.1131 12.5825 14.1131C12.2321 14.1131 12.0573 13.8908 11.7809 13.6489C11.359 13.2693 10.8808 12.988 10.3886 12.7911C8.86456 12.1687 7.10356 12.3571 5.71936 13.3197C5.71936 15.8802 5.71936 19.6955 5.71936 22.5983H16.2673C17.5893 22.5983 18.8551 21.9654 19.6427 20.9106L23.7212 14.9569C24.1853 14.3381 24.0587 13.438 23.4259 12.9739Z" fill="white"/>
<path d="M13.4531 5.17188L7.12573 11.0126V11.2034C7.58993 11.0964 8.06308 11.024 8.5472 11.024C9.36649 11.024 10.1644 11.1806 10.9198 11.4889C11.0687 11.5485 11.2023 11.6328 11.3448 11.703V10.5969C11.3448 10.2083 11.6593 9.89372 12.0481 9.89372H14.8608C15.2495 9.89372 15.5641 10.2082 15.5641 10.5969V12.7065H16.2673C17.3956 12.7065 18.3707 13.374 18.8184 14.3347L19.7833 13.134V11.0293L13.4531 5.17188Z" fill="white"/>
<path d="M12.7512 11.2998V12.6298L12.8357 12.7062H14.1576V11.2998H12.7512Z" fill="white"/>
</svg>
