<svg width="60" height="60" viewBox="0 0 60 60" fill="none" xmlns="http://www.w3.org/2000/svg">
<path d="M0 15C0 6.71573 6.71573 0 15 0H45C53.2843 0 60 6.71573 60 15V45C60 53.2843 53.2843 60 45 60H15C6.71573 60 0 53.2843 0 45V15Z" fill="black"/>
<path d="M17.083 30.557C17.5137 30.557 17.8877 30.5032 18.205 30.3955C18.528 30.2878 18.7915 30.1405 18.9955 29.9535C19.2052 29.7608 19.361 29.5342 19.463 29.2735C19.565 29.0128 19.616 28.7267 19.616 28.415C19.616 27.7917 19.4092 27.3128 18.9955 26.9785C18.5875 26.6442 17.9613 26.477 17.117 26.477H15.655V30.557H17.083ZM22.965 37H20.8995C20.5085 37 20.2252 36.847 20.0495 36.541L17.4655 32.6055C17.3692 32.4582 17.2615 32.3533 17.1425 32.291C17.0292 32.2287 16.8592 32.1975 16.6325 32.1975H15.655V37H13.3685V24.709H17.117C17.95 24.709 18.664 24.7968 19.259 24.9725C19.8597 25.1425 20.3498 25.3833 20.7295 25.695C21.1148 26.0067 21.3982 26.3807 21.5795 26.817C21.7608 27.2477 21.8515 27.7237 21.8515 28.245C21.8515 28.6587 21.7892 29.0497 21.6645 29.418C21.5455 29.7863 21.3698 30.1207 21.1375 30.421C20.9108 30.7213 20.6275 30.9848 20.2875 31.2115C19.9532 31.4382 19.5707 31.6167 19.14 31.747C19.2873 31.832 19.4233 31.934 19.548 32.053C19.6727 32.1663 19.786 32.3023 19.888 32.461L22.965 37ZM29.0149 31.6365C29.0149 31.3645 28.9752 31.1095 28.8959 30.8715C28.8222 30.6278 28.7089 30.4153 28.5559 30.234C28.4029 30.0527 28.2074 29.911 27.9694 29.809C27.737 29.7013 27.465 29.6475 27.1534 29.6475C26.547 29.6475 26.0682 29.8203 25.7169 30.166C25.3712 30.5117 25.1502 31.0018 25.0539 31.6365H29.0149ZM25.0114 32.903C25.0454 33.3507 25.1247 33.7388 25.2494 34.0675C25.374 34.3905 25.5384 34.6597 25.7424 34.875C25.9464 35.0847 26.1872 35.2433 26.4649 35.351C26.7482 35.453 27.0599 35.504 27.3999 35.504C27.7399 35.504 28.0317 35.4643 28.2754 35.385C28.5247 35.3057 28.74 35.2178 28.9214 35.1215C29.1084 35.0252 29.2699 34.9373 29.4059 34.858C29.5475 34.7787 29.6835 34.739 29.8139 34.739C29.9895 34.739 30.1199 34.8042 30.2049 34.9345L30.8084 35.6995C30.576 35.9715 30.3154 36.201 30.0264 36.388C29.7374 36.5693 29.4342 36.7167 29.1169 36.83C28.8052 36.9377 28.485 37.0142 28.1564 37.0595C27.8334 37.1048 27.5189 37.1275 27.2129 37.1275C26.6065 37.1275 26.0427 37.0283 25.5214 36.83C25 36.626 24.5467 36.3285 24.1614 35.9375C23.776 35.5408 23.4729 35.0535 23.2519 34.4755C23.0309 33.8918 22.9204 33.2175 22.9204 32.4525C22.9204 31.8575 23.0167 31.2993 23.2094 30.778C23.402 30.251 23.6769 29.7948 24.0339 29.4095C24.3965 29.0185 24.8357 28.7097 25.3514 28.483C25.8727 28.2563 26.4592 28.143 27.1109 28.143C27.6605 28.143 28.1677 28.2308 28.6324 28.4065C29.097 28.5822 29.4965 28.84 29.8309 29.18C30.1652 29.5143 30.4259 29.928 30.6129 30.421C30.8055 30.9083 30.9019 31.4665 30.9019 32.0955C30.9019 32.4128 30.8679 32.6282 30.7999 32.7415C30.7319 32.8492 30.6015 32.903 30.4089 32.903H25.0114ZM34.4409 29.35C34.6166 29.1743 34.8008 29.0128 34.9934 28.8655C35.1918 28.7125 35.3986 28.585 35.6139 28.483C35.8349 28.3753 36.0701 28.2932 36.3194 28.2365C36.5688 28.1742 36.8408 28.143 37.1354 28.143C37.6114 28.143 38.0336 28.2252 38.4019 28.3895C38.7703 28.5482 39.0763 28.7748 39.3199 29.0695C39.5693 29.3585 39.7563 29.707 39.8809 30.115C40.0113 30.5173 40.0764 30.9622 40.0764 31.4495V37H37.9769V31.4495C37.9769 30.9168 37.8551 30.506 37.6114 30.217C37.3678 29.9223 36.9966 29.775 36.4979 29.775C36.1353 29.775 35.7953 29.8572 35.4779 30.0215C35.1606 30.1858 34.8603 30.4097 34.5769 30.693V37H32.4774V28.279H33.7609C34.0329 28.279 34.2114 28.4065 34.2964 28.6615L34.4409 29.35ZM44.8639 37.136C44.1046 37.136 43.5209 36.9235 43.1129 36.4985C42.7106 36.0678 42.5094 35.4757 42.5094 34.722V29.8515H41.6169C41.5036 29.8515 41.4073 29.8147 41.3279 29.741C41.2486 29.6673 41.2089 29.5568 41.2089 29.4095V28.5765L42.6114 28.347L43.0534 25.967C43.0818 25.8537 43.1356 25.7658 43.2149 25.7035C43.2943 25.6412 43.3963 25.61 43.5209 25.61H44.6089V28.3555H46.9379V29.8515H44.6089V34.5775C44.6089 34.8495 44.6741 35.062 44.8044 35.215C44.9404 35.368 45.1246 35.4445 45.3569 35.4445C45.4873 35.4445 45.5949 35.4303 45.6799 35.402C45.7706 35.368 45.8471 35.334 45.9094 35.3C45.9774 35.266 46.0369 35.2348 46.0879 35.2065C46.1389 35.1725 46.1899 35.1555 46.2409 35.1555C46.3033 35.1555 46.3543 35.1725 46.3939 35.2065C46.4336 35.2348 46.4761 35.2802 46.5214 35.3425L47.1504 36.3625C46.8444 36.6175 46.4931 36.8102 46.0964 36.9405C45.6998 37.0708 45.2889 37.136 44.8639 37.136Z" fill="white"/>
</svg>
