<svg width="19" height="18" viewBox="0 0 19 18" fill="none" xmlns="http://www.w3.org/2000/svg">
<path d="M17.3678 0.195312H15.4163C14.6631 0.195312 14.0503 0.808071 14.0503 1.56133V10.538C14.0503 11.2913 14.6631 11.9041 15.4163 11.9041H17.3678C18.121 11.9041 18.7338 11.2913 18.7338 10.538V1.56133C18.7338 0.808071 18.121 0.195312 17.3678 0.195312Z" fill="white"/>
<path d="M3.99572 0C2.47358 0 1.17781 1.09282 0.920219 2.59154L0.0459654 7.66533C-0.28188 9.57776 1.18562 11.3185 3.12146 11.3185H6.80582C6.80582 11.3185 6.22038 12.4893 6.22038 14.4408C6.22038 16.7825 7.97669 17.5631 8.75728 17.5631C9.53786 17.5631 9.92815 17.1728 9.92815 15.2214C9.92815 13.3667 11.7243 11.8742 12.8795 11.1054V1.43549C11.6298 0.857081 9.12805 0 5.24465 0H3.99572Z" fill="white"/>
</svg>
