<svg width="9" height="18" viewBox="0 0 9 18" fill="none" xmlns="http://www.w3.org/2000/svg">
<path d="M1.26305 17.6859C1.02323 17.6863 0.788274 17.6183 0.585739 17.4898C0.383204 17.3614 0.221489 17.1779 0.119562 16.9608C0.0176354 16.7438 -0.0202761 16.5021 0.0102748 16.2642C0.0408257 16.0264 0.138571 15.8022 0.292047 15.6179L5.94005 8.85988L0.494048 2.08988C0.38845 1.95671 0.310231 1.80398 0.26389 1.64046C0.21755 1.47694 0.204003 1.30588 0.22403 1.13711C0.244058 0.968333 0.297264 0.805188 0.380587 0.657058C0.463909 0.508928 0.575703 0.378738 0.709535 0.27398C0.843366 0.169222 0.996593 0.0919645 1.1604 0.0466535C1.3242 0.00134258 1.49535 -0.0111269 1.66399 0.00996186C1.83264 0.0310507 1.99544 0.0852815 2.14305 0.169534C2.29065 0.253787 2.42013 0.366397 2.52405 0.500885L8.61305 8.06489C8.79814 8.29041 8.89931 8.57313 8.89931 8.86489C8.89931 9.15664 8.79814 9.43936 8.61305 9.66488L2.31305 17.2289C2.18662 17.3814 2.02603 17.502 1.8443 17.5809C1.66256 17.6597 1.46481 17.6947 1.26705 17.6829L1.26305 17.6859Z" fill="white"/>
</svg>
