<svg width="50" height="50" viewBox="0 0 50 50" fill="none" xmlns="http://www.w3.org/2000/svg">
<path d="M0 15C0 6.71573 6.71573 0 15 0H35C43.2843 0 50 6.71573 50 15V35C50 43.2843 43.2843 50 35 50H15C6.71573 50 0 43.2843 0 35V15Z" fill="white" fill-opacity="0.2"/>
<path d="M19.2827 21.0098H21.3589C21.7789 21.0098 22.1197 21.3378 22.1197 21.7431C22.1197 22.1484 21.7789 22.4764 21.3589 22.4764H19.2822C18.8628 22.4764 18.5214 22.8055 18.5214 23.2098V32.8C18.5214 33.2043 18.8628 33.5333 19.2822 33.5333H30.7178C31.1372 33.5333 31.4786 33.2043 31.4786 32.8V23.2098C31.4786 22.8055 31.1372 22.4764 30.7178 22.4764H28.6411C28.2206 22.4764 27.8803 22.1484 27.8803 21.7431C27.8803 21.3378 28.2206 21.0098 28.6411 21.0098H30.7178C31.9761 21.0098 33 21.9968 33 23.2098V32.8C33 34.0129 31.9761 35 30.7178 35H19.2822C18.0239 35 17 34.0129 17 32.8V23.2098C17.0005 21.9963 18.0239 21.0098 19.2827 21.0098ZM27.8367 19.5294L25.7356 17.5039V27.1586C25.7356 27.5634 25.3953 27.8919 24.9749 27.8919C24.5545 27.8919 24.2142 27.5634 24.2142 27.1586V17.5039L22.1131 19.5294C21.9645 19.6726 21.7697 19.744 21.575 19.744C21.3802 19.744 21.1855 19.6726 21.0369 19.5294C20.7397 19.2434 20.7397 18.7784 21.0369 18.4924L24.4363 15.2149C24.734 14.9284 25.2153 14.9284 25.5125 15.2149L28.9124 18.4924C29.2096 18.7784 29.2096 19.2434 28.9124 19.5294C28.6152 19.8159 28.1339 19.8159 27.8367 19.5294Z" fill="white"/>
</svg>
