<svg width="225" height="205" viewBox="0 0 225 205" fill="none" xmlns="http://www.w3.org/2000/svg">
<path d="M156.199 156.416L94.9862 121.075C92.7889 119.806 90.9643 117.981 89.6957 115.783C88.427 113.586 87.759 111.093 87.7588 108.556V37.876L156.199 77.3897V156.416Z" fill="url(#paint0_linear_728_22099)"/>
<path d="M150.868 147.183L99.1076 117.298C97.278 116.242 95.7587 114.723 94.7024 112.893C93.646 111.064 93.09 108.989 93.0901 106.876V47.1113L144.852 76.9947C146.681 78.0511 148.2 79.5702 149.256 81.3996C150.312 83.2289 150.867 85.3039 150.868 87.4161V147.183Z" fill="#F5E83C"/>
<path d="M217.416 121.075L156.202 156.416V77.3897L224.644 37.876V108.556C224.643 111.093 223.975 113.586 222.707 115.783C221.438 117.981 219.614 119.806 217.416 121.075Z" fill="url(#paint1_linear_728_22099)"/>
<path d="M213.529 117.435L161.292 147.595V87.2779C161.292 85.1655 161.848 83.0903 162.905 81.2609C163.961 79.4316 165.48 77.9125 167.31 76.8565L219.547 46.6973V107.014C219.547 109.126 218.991 111.202 217.934 113.031C216.878 114.86 215.359 116.38 213.529 117.435Z" fill="#F5E83C"/>
<path d="M156.2 77.3902L87.7603 37.8765L148.971 2.53564C151.169 1.26668 153.662 0.598633 156.2 0.598633C158.738 0.598633 161.231 1.26668 163.429 2.53564L224.642 37.8765L156.2 77.3902Z" fill="url(#paint2_linear_728_22099)"/>
<path d="M156.2 76.1717L88.8089 37.2695L87.7603 37.8744L156.2 77.3882L224.638 37.8744L223.59 37.2695L156.2 76.1717Z" fill="#FA9983"/>
<path d="M68.5724 205L7.35994 169.66C5.16269 168.391 3.33809 166.566 2.06945 164.368C0.800806 162.171 0.132814 159.678 0.132568 157.141V86.4609L68.5724 125.975V205Z" fill="url(#paint3_linear_728_22099)"/>
<path d="M63.2413 195.768L11.4814 165.883C9.65181 164.827 8.13246 163.308 7.07614 161.478C6.01982 159.649 5.46375 157.574 5.46387 155.461V95.6963L57.2254 125.58C59.0545 126.636 60.5733 128.155 61.6293 129.985C62.6853 131.814 63.2412 133.889 63.2413 136.001V195.768Z" fill="#F5E83C"/>
<path d="M129.79 169.66L68.5757 205V125.975L137.017 86.4609V157.141C137.017 159.678 136.349 162.171 135.08 164.368C133.812 166.566 131.987 168.391 129.79 169.66Z" fill="url(#paint4_linear_728_22099)"/>
<path d="M125.903 166.02L73.666 196.18V135.863C73.6661 133.75 74.2222 131.675 75.2785 129.846C76.3348 128.017 77.8541 126.497 79.6836 125.441L131.92 95.2822V155.599C131.92 157.711 131.364 159.787 130.308 161.616C129.252 163.445 127.732 164.964 125.903 166.02Z" fill="#F5E83C"/>
<path d="M68.5739 125.975L0.134033 86.4614L61.3449 51.1206C63.5428 49.8516 66.036 49.1836 68.5739 49.1836C71.1118 49.1836 73.605 49.8516 75.8029 51.1206L137.015 86.4614L68.5739 125.975Z" fill="url(#paint5_linear_728_22099)"/>
<path d="M68.5739 124.757L1.18268 85.8545L0.134033 86.4594L68.5739 125.973L137.012 86.4594L135.963 85.8545L68.5739 124.757Z" fill="#FA9983"/>
<defs>
<linearGradient id="paint0_linear_728_22099" x1="121.979" y1="37.876" x2="121.979" y2="156.416" gradientUnits="userSpaceOnUse">
<stop stop-color="#FC9F09"/>
<stop offset="1" stop-color="#FBC83E"/>
</linearGradient>
<linearGradient id="paint1_linear_728_22099" x1="190.423" y1="37.876" x2="190.423" y2="156.416" gradientUnits="userSpaceOnUse">
<stop stop-color="#FC9F09"/>
<stop offset="1" stop-color="#FBC83E"/>
</linearGradient>
<linearGradient id="paint2_linear_728_22099" x1="156.201" y1="0.598633" x2="156.201" y2="77.3902" gradientUnits="userSpaceOnUse">
<stop stop-color="#FC9F09"/>
<stop offset="1" stop-color="#FBC83E"/>
</linearGradient>
<linearGradient id="paint3_linear_728_22099" x1="34.3525" y1="86.4609" x2="34.3525" y2="205" gradientUnits="userSpaceOnUse">
<stop stop-color="#FC9F09"/>
<stop offset="1" stop-color="#FBC83E"/>
</linearGradient>
<linearGradient id="paint4_linear_728_22099" x1="102.796" y1="86.4609" x2="102.796" y2="205" gradientUnits="userSpaceOnUse">
<stop stop-color="#FC9F09"/>
<stop offset="1" stop-color="#FBC83E"/>
</linearGradient>
<linearGradient id="paint5_linear_728_22099" x1="68.5747" y1="49.1836" x2="68.5747" y2="125.975" gradientUnits="userSpaceOnUse">
<stop stop-color="#FC9F09"/>
<stop offset="1" stop-color="#FBC83E"/>
</linearGradient>
</defs>
</svg>
