<svg width="50" height="50" viewBox="0 0 50 50" fill="none" xmlns="http://www.w3.org/2000/svg">
<g filter="url(#filter0_b_800_22066)">
<path d="M0 24.15C0 15.6076 0 11.3365 1.6888 8.08538C3.11193 5.34574 5.34574 3.11193 8.08538 1.6888C11.3365 0 15.6076 0 24.15 0H25.85C34.3924 0 38.6635 0 41.9146 1.6888C44.6543 3.11193 46.8881 5.34574 48.3112 8.08538C50 11.3365 50 15.6076 50 24.15V25.85C50 34.3924 50 38.6635 48.3112 41.9146C46.8881 44.6543 44.6543 46.8881 41.9146 48.3112C38.6635 50 34.3924 50 25.85 50H24.15C15.6076 50 11.3365 50 8.08538 48.3112C5.34574 46.8881 3.11193 44.6543 1.6888 41.9146C0 38.6635 0 34.3924 0 25.85V24.15Z" fill="white" fill-opacity="0.5"/>
</g>
<path fill-rule="evenodd" clip-rule="evenodd" d="M26.2439 19.0451C26.2439 17.6947 27.3386 16.6 28.689 16.6C30.0394 16.6 31.1342 17.6947 31.1342 19.0451C31.1342 20.3955 30.0394 21.4902 28.689 21.4902C27.3386 21.4902 26.2439 20.3955 26.2439 19.0451ZM24.6989 19.7136L14.8015 19.7134C14.3596 19.7134 14.0015 19.3553 14.0015 18.9134C14.0015 18.4716 14.3596 18.1134 14.8015 18.1134L24.7517 18.1136C25.1724 16.3286 26.7756 15 28.689 15C30.6026 15 32.2058 16.3287 32.6264 18.1138L36.0871 18.1134C36.5289 18.1134 36.8871 18.4715 36.8871 18.9134C36.8872 19.3552 36.529 19.7134 36.0872 19.7134L32.6792 19.7138C32.3605 21.6296 30.6953 23.0902 28.689 23.0902C26.6827 23.0902 25.0175 21.6295 24.6989 19.7136Z" fill="white"/>
<path d="M14.8015 19.7134L14.8015 19.2134H14.8015L14.8015 19.7134ZM24.6989 19.7136L25.1921 19.6316L25.1226 19.2136L24.6989 19.2136L24.6989 19.7136ZM14.0015 18.9134L13.5015 18.9134L14.0015 18.9134ZM14.8015 18.1134L14.8015 17.6134H14.8015L14.8015 18.1134ZM24.7517 18.1136L24.7517 18.6136L25.1475 18.6136L25.2384 18.2283L24.7517 18.1136ZM32.6264 18.1138L32.1397 18.2284L32.2306 18.6138L32.6265 18.6138L32.6264 18.1138ZM36.0871 18.1134L36.087 17.6134L36.0871 18.1134ZM36.8871 18.9134L37.3871 18.9133V18.9133L36.8871 18.9134ZM36.0872 19.7134L36.0872 19.2134L36.0872 19.7134ZM32.6792 19.7138L32.6791 19.2138L32.2554 19.2138L32.1859 19.6317L32.6792 19.7138ZM28.689 16.1C27.0625 16.1 25.7439 17.4186 25.7439 19.0451H26.7439C26.7439 17.9709 27.6148 17.1 28.689 17.1V16.1ZM31.6342 19.0451C31.6342 17.4186 30.3156 16.1 28.689 16.1V17.1C29.7633 17.1 30.6342 17.9709 30.6342 19.0451H31.6342ZM28.689 21.9902C30.3156 21.9902 31.6342 20.6717 31.6342 19.0451H30.6342C30.6342 20.1194 29.7633 20.9902 28.689 20.9902V21.9902ZM25.7439 19.0451C25.7439 20.6717 27.0625 21.9902 28.689 21.9902V20.9902C27.6148 20.9902 26.7439 20.1194 26.7439 19.0451H25.7439ZM14.8014 20.2134L24.6989 20.2136L24.6989 19.2136L14.8015 19.2134L14.8014 20.2134ZM13.5015 18.9134C13.5015 19.6314 14.0835 20.2134 14.8014 20.2134L14.8015 19.2134C14.6358 19.2134 14.5015 19.0791 14.5015 18.9134L13.5015 18.9134ZM14.8015 17.6134C14.0835 17.6134 13.5015 18.1955 13.5015 18.9134L14.5015 18.9134C14.5015 18.7478 14.6358 18.6134 14.8015 18.6134L14.8015 17.6134ZM24.7517 17.6136L14.8015 17.6134L14.8015 18.6134L24.7517 18.6136L24.7517 17.6136ZM25.2384 18.2283C25.6071 16.6639 27.0127 15.5 28.689 15.5V14.5C26.5384 14.5 24.7378 15.9932 24.265 17.9989L25.2384 18.2283ZM28.689 15.5C30.3654 15.5 31.7711 16.664 32.1397 18.2284L33.1131 17.9991C32.6404 15.9933 30.8397 14.5 28.689 14.5V15.5ZM36.087 17.6134L32.6264 17.6138L32.6265 18.6138L36.0871 18.6134L36.087 17.6134ZM37.3871 18.9133C37.3871 18.1954 36.805 17.6134 36.087 17.6134L36.0871 18.6134C36.2528 18.6134 36.3871 18.7477 36.3871 18.9134L37.3871 18.9133ZM36.0872 20.2134C36.8052 20.2134 37.3872 19.6313 37.3871 18.9133L36.3871 18.9134C36.3871 19.0791 36.2528 19.2134 36.0872 19.2134L36.0872 20.2134ZM32.6792 20.2138L36.0872 20.2134L36.0872 19.2134L32.6791 19.2138L32.6792 20.2138ZM32.1859 19.6317C31.9067 21.3104 30.4468 22.5902 28.689 22.5902V23.5902C30.9438 23.5902 32.8143 21.9489 33.1724 19.7958L32.1859 19.6317ZM28.689 22.5902C26.9312 22.5902 25.4713 21.3103 25.1921 19.6316L24.2057 19.7956C24.5637 21.9488 26.4342 23.5902 28.689 23.5902V22.5902Z" fill="white"/>
<path fill-rule="evenodd" clip-rule="evenodd" d="M24.6412 30.4602C24.6412 29.1098 23.5465 28.015 22.1961 28.015C20.8834 28.015 19.8123 29.0495 19.7535 30.3477C19.7533 30.3553 19.753 30.363 19.7526 30.3706C19.7515 30.4003 19.751 30.4302 19.751 30.4602C19.751 31.8106 20.8457 32.9053 22.1961 32.9053C23.5465 32.9053 24.6412 31.8106 24.6412 30.4602ZM18.2055 31.1259C18.523 33.0432 20.1888 34.5053 22.1961 34.5053C24.2035 34.5053 25.8693 33.0431 26.1867 31.1257L36.0858 31.1256C36.5276 31.1256 36.8857 30.7674 36.8857 30.3256C36.8857 29.8838 36.5276 29.5256 36.0857 29.5256L26.1328 29.5257C25.711 27.7422 24.1086 26.415 22.1961 26.415C20.2836 26.415 18.6811 27.7423 18.2594 29.5259L14.8001 29.5256C14.3583 29.5256 14.0001 29.8837 14.0001 30.3255C14 30.7674 14.3582 31.1256 14.8 31.1256L18.2055 31.1259Z" fill="white"/>
<path d="M19.7535 30.3477L19.2536 30.3344L19.254 30.325L19.7535 30.3477ZM19.7526 30.3706L19.2528 30.3526L19.2534 30.3432L19.7526 30.3706ZM18.2055 31.1259L18.2056 30.6259L18.6295 30.626L18.6988 31.0442L18.2055 31.1259ZM26.1867 31.1257L25.6935 31.0441L25.7627 30.6257L26.1867 30.6257L26.1867 31.1257ZM36.0858 31.1256L36.0857 30.6256L36.0858 31.1256ZM36.8857 30.3256L37.3857 30.3256L36.8857 30.3256ZM36.0857 29.5256L36.0857 29.0256L36.0857 29.5256ZM26.1328 29.5257L26.1328 30.0257L25.7372 30.0257L25.6462 29.6408L26.1328 29.5257ZM18.2594 29.5259L18.746 29.641L18.655 30.026L18.2594 30.0259L18.2594 29.5259ZM14.8001 29.5256L14.8001 30.0256L14.8001 29.5256ZM14.0001 30.3255L13.5001 30.3255V30.3255L14.0001 30.3255ZM14.8 31.1256L14.8 31.6256L14.8 31.1256ZM22.1961 27.515C23.8227 27.515 25.1412 28.8336 25.1412 30.4602H24.1412C24.1412 29.3859 23.2704 28.515 22.1961 28.515V27.515ZM19.254 30.325C19.3249 28.761 20.6149 27.515 22.1961 27.515V28.515C21.152 28.515 20.2998 29.3379 20.253 30.3703L19.254 30.325ZM20.2534 30.361C20.253 30.3733 20.2525 30.3856 20.2519 30.398L19.2534 30.3432C19.2535 30.3403 19.2536 30.3374 19.2537 30.3344L20.2534 30.361ZM19.251 30.4602C19.251 30.4242 19.2516 30.3883 19.2529 30.3526L20.2523 30.3886C20.2514 30.4123 20.251 30.4362 20.251 30.4602H19.251ZM22.1961 33.4053C20.5696 33.4053 19.251 32.0867 19.251 30.4602H20.251C20.251 31.5344 21.1219 32.4053 22.1961 32.4053V33.4053ZM25.1412 30.4602C25.1412 32.0867 23.8227 33.4053 22.1961 33.4053V32.4053C23.2704 32.4053 24.1412 31.5344 24.1412 30.4602H25.1412ZM18.6988 31.0442C18.977 32.7242 20.4374 34.0053 22.1961 34.0053V35.0053C19.9402 35.0053 18.069 33.3623 17.7122 31.2076L18.6988 31.0442ZM22.1961 34.0053C23.9549 34.0053 25.4153 32.7241 25.6935 31.0441L26.68 31.2074C26.3233 33.3622 24.4521 35.0053 22.1961 35.0053V34.0053ZM36.0858 31.6256L26.1868 31.6257L26.1867 30.6257L36.0857 30.6256L36.0858 31.6256ZM37.3857 30.3256C37.3858 31.0436 36.8037 31.6256 36.0858 31.6256L36.0857 30.6256C36.2514 30.6256 36.3857 30.4913 36.3857 30.3256L37.3857 30.3256ZM36.0857 29.0256C36.8037 29.0256 37.3857 29.6076 37.3857 30.3256L36.3857 30.3256C36.3857 30.1599 36.2514 30.0256 36.0857 30.0256L36.0857 29.0256ZM26.1328 29.0257L36.0857 29.0256L36.0857 30.0256L26.1328 30.0257L26.1328 29.0257ZM25.6462 29.6408C25.2766 28.0777 23.8715 26.915 22.1961 26.915V25.915C24.3456 25.915 26.1455 27.4066 26.6194 29.4107L25.6462 29.6408ZM22.1961 26.915C20.5207 26.915 19.1156 28.0778 18.746 29.641L17.7728 29.4109C18.2466 27.4068 20.0466 25.915 22.1961 25.915V26.915ZM14.8002 29.0256L18.2595 29.0259L18.2594 30.0259L14.8001 30.0256L14.8002 29.0256ZM13.5001 30.3255C13.5001 29.6075 14.0822 29.0255 14.8002 29.0256L14.8001 30.0256C14.6344 30.0256 14.5001 30.1599 14.5001 30.3256L13.5001 30.3255ZM14.8 31.6256C14.082 31.6255 13.5 31.0435 13.5001 30.3255L14.5001 30.3256C14.5001 30.4913 14.6344 30.6256 14.8 30.6256L14.8 31.6256ZM18.2055 31.6259L14.8 31.6256L14.8 30.6256L18.2056 30.6259L18.2055 31.6259Z" fill="white"/>
<defs>
<filter id="filter0_b_800_22066" x="-30" y="-30" width="110" height="110" filterUnits="userSpaceOnUse" color-interpolation-filters="sRGB">
<feFlood flood-opacity="0" result="BackgroundImageFix"/>
<feGaussianBlur in="BackgroundImageFix" stdDeviation="15"/>
<feComposite in2="SourceAlpha" operator="in" result="effect1_backgroundBlur_800_22066"/>
<feBlend mode="normal" in="SourceGraphic" in2="effect1_backgroundBlur_800_22066" result="shape"/>
</filter>
</defs>
</svg>
