<svg width="8" height="10" viewBox="0 0 8 10" fill="none" xmlns="http://www.w3.org/2000/svg">
<path d="M6.61183 3.00488H5.61106C5.40866 3.00488 5.24439 3.1689 5.24439 3.37155C5.24439 3.5742 5.40866 3.73822 5.61106 3.73822H6.61207C6.81423 3.73822 6.97875 3.90273 6.97875 4.10489V8.89998C6.97875 9.10214 6.81423 9.26666 6.61207 9.26666H1.10002C0.897858 9.26666 0.733344 9.10214 0.733344 8.89998V4.10489C0.733344 3.90273 0.897858 3.73822 1.10002 3.73822H2.10103C2.30368 3.73822 2.4677 3.5742 2.4677 3.37155C2.4677 3.1689 2.30368 3.00488 2.10103 3.00488H1.10002C0.493541 3.00488 0 3.49842 0 4.10489V8.89998C0 9.50646 0.493541 10 1.10002 10H6.61207C7.21855 10 7.71209 9.50646 7.71209 8.89998V4.10489C7.71185 3.49817 7.21855 3.00488 6.61183 3.00488ZM2.48873 2.26469L3.50147 1.25194V6.0793C3.50147 6.2817 3.6655 6.44597 3.86814 6.44597C4.07079 6.44597 4.23482 6.2817 4.23482 6.0793V1.25194L5.24757 2.26469C5.31919 2.33631 5.41306 2.372 5.50692 2.372C5.60079 2.372 5.69466 2.33631 5.76628 2.26469C5.90953 2.12169 5.90953 1.88922 5.76628 1.74621L4.12775 0.107435C3.98426 -0.0358116 3.75228 -0.0358116 3.60903 0.107435L1.97025 1.74621C1.827 1.88922 1.827 2.12169 1.97025 2.26469C2.1135 2.40794 2.34548 2.40794 2.48873 2.26469Z" fill="white"/>
</svg>
