<svg width="327" height="213" viewBox="0 0 327 213" fill="none" xmlns="http://www.w3.org/2000/svg">
<path d="M162.935 161.916L99.3262 125.192C97.0429 123.873 95.1469 121.977 93.8286 119.693C92.5103 117.41 91.8162 114.82 91.8159 112.183V38.7363L162.935 79.7967V161.916Z" fill="url(#paint0_linear_728_22100)"/>
<path d="M157.395 152.321L103.609 121.267C101.708 120.169 100.129 118.591 99.0313 116.69C97.9337 114.789 97.3558 112.632 97.356 110.437V48.333L151.144 79.386C153.044 80.4838 154.623 82.0624 155.72 83.9634C156.817 85.8643 157.395 88.0205 157.395 90.2154V152.321Z" fill="#F5E83C"/>
<path d="M226.548 125.192L162.938 161.916V79.7967L234.059 38.7363V112.183C234.058 114.82 233.364 117.41 232.046 119.693C230.728 121.977 228.832 123.873 226.548 125.192Z" fill="url(#paint1_linear_728_22100)"/>
<path d="M222.509 121.409L168.228 152.749V90.0714C168.228 87.8763 168.806 85.7199 169.903 83.8189C171.001 81.918 172.58 80.3394 174.481 79.242L228.762 47.9023V110.58C228.762 112.775 228.185 114.932 227.087 116.833C225.989 118.734 224.41 120.312 222.509 121.409Z" fill="#F5E83C"/>
<path d="M162.936 79.7974L91.8174 38.737L155.424 2.01282C157.708 0.694193 160.299 0 162.936 0C165.573 0 168.164 0.694193 170.448 2.01282L234.057 38.737L162.936 79.7974Z" fill="url(#paint2_linear_728_22100)"/>
<path d="M162.935 78.2901L92.9056 37.8652L91.8159 38.4938L162.935 79.5542L234.052 38.4938L232.962 37.8652L162.935 78.2901Z" fill="#FA9983"/>
<path d="M254.892 211.501L191.284 174.777C189.001 173.458 187.105 171.562 185.786 169.278C184.468 166.995 183.774 164.405 183.774 161.768V88.3213L254.892 129.382V211.501Z" fill="url(#paint3_linear_728_22100)"/>
<path d="M249.353 201.906L195.567 170.852C193.666 169.754 192.087 168.176 190.989 166.275C189.891 164.374 189.314 162.217 189.314 160.022V97.918L243.101 128.971C245.002 130.069 246.58 131.647 247.678 133.548C248.775 135.449 249.353 137.605 249.353 139.8V201.906Z" fill="#F5E83C"/>
<path d="M318.506 174.777L254.896 211.501V129.382L326.016 88.3213V161.768C326.016 164.405 325.322 166.995 324.004 169.278C322.686 171.562 320.789 173.458 318.506 174.777Z" fill="url(#paint4_linear_728_22100)"/>
<path d="M314.467 170.994L260.186 202.334V139.656C260.186 137.461 260.763 135.305 261.861 133.404C262.959 131.503 264.538 129.924 266.439 128.827L320.72 97.4873V160.165C320.72 162.36 320.142 164.517 319.045 166.418C317.947 168.319 316.368 169.897 314.467 170.994Z" fill="#F5E83C"/>
<path d="M254.894 129.382L183.775 88.322L247.382 51.5978C249.666 50.2792 252.257 49.585 254.894 49.585C257.531 49.585 260.122 50.2792 262.406 51.5978L326.014 88.322L254.894 129.382Z" fill="url(#paint5_linear_728_22100)"/>
<path d="M254.892 127.875L184.863 87.4502L183.774 88.0788L254.892 129.139L326.01 88.0788L324.92 87.4502L254.892 127.875Z" fill="#FA9983"/>
<path d="M71.8785 212.402L8.27003 175.678C5.98678 174.359 4.09075 172.463 2.77246 170.18C1.45416 167.896 0.760021 165.306 0.759766 162.669V89.2227L71.8785 130.283V212.402Z" fill="url(#paint6_linear_728_22100)"/>
<path d="M66.3388 202.808L12.5529 171.753C10.6517 170.656 9.07286 169.077 7.97519 167.176C6.87752 165.275 6.29968 163.119 6.2998 160.924V98.8193L60.0874 129.872C61.9881 130.97 63.5664 132.549 64.6637 134.45C65.7611 136.351 66.3387 138.507 66.3388 140.702V202.808Z" fill="#F5E83C"/>
<path d="M135.492 175.678L71.8821 212.402V130.283L143.003 89.2227V162.669C143.002 165.306 142.308 167.896 140.99 170.18C139.672 172.463 137.776 174.359 135.492 175.678Z" fill="url(#paint7_linear_728_22100)"/>
<path d="M131.453 171.896L77.1716 203.235V140.558C77.1717 138.363 77.7496 136.206 78.8472 134.305C79.9449 132.404 81.5236 130.826 83.4247 129.728L137.706 98.3887V161.066C137.706 163.261 137.129 165.418 136.031 167.319C134.933 169.22 133.354 170.798 131.453 171.896Z" fill="#F5E83C"/>
<path d="M71.88 130.284L0.76123 89.2233L64.368 52.4992C66.6519 51.1805 69.2428 50.4863 71.88 50.4863C74.5173 50.4863 77.1081 51.1805 79.392 52.4992L143 89.2233L71.88 130.284Z" fill="url(#paint8_linear_728_22100)"/>
<path d="M71.88 129.018L1.85092 88.5928L0.76123 89.2214L71.88 130.282L142.997 89.2214L141.907 88.5928L71.88 129.018Z" fill="#FA9983"/>
<defs>
<linearGradient id="paint0_linear_728_22100" x1="127.375" y1="38.7363" x2="127.375" y2="161.916" gradientUnits="userSpaceOnUse">
<stop stop-color="#FC9F09"/>
<stop offset="1" stop-color="#FBC83E"/>
</linearGradient>
<linearGradient id="paint1_linear_728_22100" x1="198.498" y1="38.7363" x2="198.498" y2="161.916" gradientUnits="userSpaceOnUse">
<stop stop-color="#FC9F09"/>
<stop offset="1" stop-color="#FBC83E"/>
</linearGradient>
<linearGradient id="paint2_linear_728_22100" x1="162.937" y1="0" x2="162.937" y2="79.7974" gradientUnits="userSpaceOnUse">
<stop stop-color="#FC9F09"/>
<stop offset="1" stop-color="#FBC83E"/>
</linearGradient>
<linearGradient id="paint3_linear_728_22100" x1="219.333" y1="88.3213" x2="219.333" y2="211.501" gradientUnits="userSpaceOnUse">
<stop stop-color="#FC9F09"/>
<stop offset="1" stop-color="#FBC83E"/>
</linearGradient>
<linearGradient id="paint4_linear_728_22100" x1="290.456" y1="88.3213" x2="290.456" y2="211.501" gradientUnits="userSpaceOnUse">
<stop stop-color="#FC9F09"/>
<stop offset="1" stop-color="#FBC83E"/>
</linearGradient>
<linearGradient id="paint5_linear_728_22100" x1="254.895" y1="49.585" x2="254.895" y2="129.382" gradientUnits="userSpaceOnUse">
<stop stop-color="#FC9F09"/>
<stop offset="1" stop-color="#FBC83E"/>
</linearGradient>
<linearGradient id="paint6_linear_728_22100" x1="36.3191" y1="89.2227" x2="36.3191" y2="212.402" gradientUnits="userSpaceOnUse">
<stop stop-color="#FC9F09"/>
<stop offset="1" stop-color="#FBC83E"/>
</linearGradient>
<linearGradient id="paint7_linear_728_22100" x1="107.442" y1="89.2227" x2="107.442" y2="212.402" gradientUnits="userSpaceOnUse">
<stop stop-color="#FC9F09"/>
<stop offset="1" stop-color="#FBC83E"/>
</linearGradient>
<linearGradient id="paint8_linear_728_22100" x1="71.8809" y1="50.4863" x2="71.8809" y2="130.284" gradientUnits="userSpaceOnUse">
<stop stop-color="#FC9F09"/>
<stop offset="1" stop-color="#FBC83E"/>
</linearGradient>
</defs>
</svg>
