<svg width="17" height="11" viewBox="0 0 17 11" fill="none" xmlns="http://www.w3.org/2000/svg">
<path d="M8.5 0C11.748 0 14.6935 1.82933 16.867 4.80064C17.0443 5.04407 17.0443 5.38416 16.867 5.6276C14.6935 8.60249 11.748 10.4318 8.5 10.4318C5.25197 10.4318 2.30649 8.60249 0.133017 5.63118C-0.0443382 5.38774 -0.0443382 5.04765 0.133017 4.80422C2.30649 1.82933 5.25197 0 8.5 0ZM8.267 8.88888C10.4231 9.0285 12.2036 7.19917 12.068 4.97606C11.9567 3.14315 10.5135 1.65749 8.733 1.54294C6.57692 1.40332 4.79641 3.23265 4.93204 5.45576C5.04679 7.28509 6.48998 8.77075 8.267 8.88888ZM8.37481 7.19201C9.53631 7.26719 10.4961 6.28272 10.4196 5.08703C10.3605 4.09898 9.58152 3.30066 8.62171 3.23623C7.46021 3.16105 6.50041 4.14552 6.57692 5.34121C6.63951 6.33284 7.41848 7.13115 8.37481 7.19201Z" fill="white"/>
</svg>
