<svg width="100" height="100" viewBox="0 0 100 100" fill="none" xmlns="http://www.w3.org/2000/svg">
<circle cx="50" cy="50" r="48.5" fill="#EFB73E" stroke="white" stroke-width="3"/>
<path d="M32.9155 47.5078V65.9639C32.9155 66.644 33.1486 67.2661 33.528 67.7725L47.8965 55.441L32.9155 47.5078Z" fill="white"/>
<path d="M64.0471 43.0274H35.9463C34.1204 43.0172 32.7505 44.6323 32.9127 46.4237L49.9967 55.47L67.0808 46.4237C67.243 44.6323 65.8731 43.0165 64.0471 43.0274Z" fill="white"/>
<path d="M66.4708 67.7725C66.8501 67.2661 67.0832 66.644 67.0832 65.9639V47.5078L52.1023 55.4404L66.4708 67.7719V67.7725Z" fill="white"/>
<path d="M50.2248 56.4353C50.1545 56.4724 50.0779 56.4909 50.0006 56.4909C49.9233 56.4909 49.8467 56.4724 49.7764 56.4353L48.8076 55.9219L34.2156 68.445C34.708 68.7905 35.3045 68.9967 35.9502 68.9967H64.051C64.6967 68.9967 65.2932 68.7905 65.7856 68.445L51.1942 55.9219L50.2254 56.4353H50.2248Z" fill="white"/>
<path d="M67.2437 31H32.7563C31.7875 31 31 31.7881 31 32.7563V39.2059C31 40.1741 31.7875 40.9621 32.7563 40.9621H67.2437C68.2125 40.9621 69 40.1741 69 39.2059V32.7563C69 31.7881 68.2125 31 67.2437 31ZM40.6475 36.8186C40.8685 36.9643 40.9292 37.2612 40.7842 37.4822C40.6379 37.7051 40.3391 37.7626 40.1206 37.6189L38.9832 36.8697V38.232C38.9832 38.4964 38.7686 38.7109 38.5042 38.7109C38.2398 38.7109 38.0252 38.4964 38.0252 38.232V36.8697L36.8878 37.6189C36.6693 37.7626 36.3705 37.7051 36.2242 37.4822C36.0786 37.2612 36.1399 36.9643 36.3609 36.8186L37.6331 35.9808L36.3609 35.1429C36.1399 34.9972 36.0792 34.7003 36.2242 34.4793C36.3705 34.2583 36.6662 34.1983 36.8878 34.3426L38.0252 35.0918V33.7295C38.0252 33.4652 38.2398 33.2506 38.5042 33.2506C38.7686 33.2506 38.9832 33.4652 38.9832 33.7295V35.0918L40.1206 34.3426C40.3423 34.1977 40.6392 34.2583 40.7842 34.4793C40.9298 34.7003 40.8685 34.9972 40.6475 35.1429L39.3753 35.9808L40.6475 36.8186ZM48.3114 36.8186C48.5324 36.9643 48.593 37.2612 48.4481 37.4822C48.3018 37.7051 48.0029 37.7626 47.7845 37.6189L46.6471 36.8697V38.232C46.6471 38.4964 46.4325 38.7109 46.1681 38.7109C45.9037 38.7109 45.6891 38.4964 45.6891 38.232V36.8697L44.5516 37.6189C44.3332 37.7626 44.0343 37.7051 43.8881 37.4822C43.7425 37.2612 43.8038 36.9643 44.0247 36.8186L45.2969 35.9808L44.0247 35.1429C43.8038 34.9972 43.7431 34.7003 43.8881 34.4793C44.0337 34.2583 44.33 34.1983 44.5516 34.3426L45.6891 35.0918V33.7295C45.6891 33.4652 45.9037 33.2506 46.1681 33.2506C46.4325 33.2506 46.6471 33.4652 46.6471 33.7295V35.0918L47.7845 34.3426C48.0061 34.1977 48.3031 34.2583 48.4481 34.4793C48.5937 34.7003 48.5324 34.9972 48.3114 35.1429L47.0392 35.9808L48.3114 36.8186ZM55.9753 36.8186C56.1962 36.9643 56.2569 37.2612 56.1119 37.4822C55.9657 37.7051 55.6668 37.7626 55.4484 37.6189L54.3109 36.8697V38.232C54.3109 38.4964 54.0963 38.7109 53.8319 38.7109C53.5675 38.7109 53.3529 38.4964 53.3529 38.232V36.8697L52.2155 37.6189C51.9971 37.7626 51.6982 37.7051 51.5519 37.4822C51.4063 37.2612 51.4676 36.9643 51.6886 36.8186L52.9608 35.9808L51.6886 35.1429C51.4676 34.9972 51.407 34.7003 51.5519 34.4793C51.6982 34.2583 51.9939 34.1983 52.2155 34.3426L53.3529 35.0918V33.7295C53.3529 33.4652 53.5675 33.2506 53.8319 33.2506C54.0963 33.2506 54.3109 33.4652 54.3109 33.7295V35.0918L55.4484 34.3426C55.67 34.1977 55.967 34.2583 56.1119 34.4793C56.2575 34.7003 56.1962 34.9972 55.9753 35.1429L54.7031 35.9808L55.9753 36.8186ZM63.6391 36.8186C63.8601 36.9643 63.9208 37.2612 63.7758 37.4822C63.6295 37.7051 63.3307 37.7626 63.1122 37.6189L61.9748 36.8697V38.232C61.9748 38.4964 61.7602 38.7109 61.4958 38.7109C61.2314 38.7109 61.0168 38.4964 61.0168 38.232V36.8697L59.8794 37.6189C59.6609 37.7626 59.3621 37.7051 59.2158 37.4822C59.0702 37.2612 59.1315 36.9643 59.3525 36.8186L60.6247 35.9808L59.3525 35.1429C59.1315 34.9972 59.0708 34.7003 59.2158 34.4793C59.3614 34.2583 59.6577 34.1983 59.8794 34.3426L61.0168 35.0918V33.7295C61.0168 33.4652 61.2314 33.2506 61.4958 33.2506C61.7602 33.2506 61.9748 33.4652 61.9748 33.7295V35.0918L63.1122 34.3426C63.3338 34.1977 63.6308 34.2583 63.7758 34.4793C63.9214 34.7003 63.8601 34.9972 63.6391 35.1429L62.3669 35.9808L63.6391 36.8186Z" fill="white"/>
</svg>
