<svg width="38" height="38" viewBox="0 0 38 38" fill="none" xmlns="http://www.w3.org/2000/svg">
<path d="M1.91553 16.5078V34.9639C1.91553 35.644 2.14864 36.2661 2.528 36.7725L16.8965 24.441L1.91553 16.5078Z" fill="white"/>
<path d="M33.0471 12.0274H4.94632C3.1204 12.0172 1.75049 13.6323 1.9127 15.4237L18.9967 24.47L36.0808 15.4237C36.243 13.6323 34.8731 12.0165 33.0471 12.0274Z" fill="white"/>
<path d="M35.4708 36.7725C35.8501 36.2661 36.0832 35.644 36.0832 34.9639V16.5078L21.1023 24.4404L35.4708 36.7719V36.7725Z" fill="white"/>
<path d="M19.2248 25.4353C19.1545 25.4724 19.0779 25.4909 19.0006 25.4909C18.9233 25.4909 18.8467 25.4724 18.7764 25.4353L17.8076 24.9219L3.21558 37.445C3.70798 37.7905 4.30448 37.9967 4.95016 37.9967H33.051C33.6967 37.9967 34.2932 37.7905 34.7856 37.445L20.1942 24.9219L19.2254 25.4353H19.2248Z" fill="white"/>
<path d="M36.2437 0H1.7563C0.787462 0 0 0.788082 0 1.75626V8.20588C0 9.17406 0.787462 9.96214 1.7563 9.96214H36.2437C37.2125 9.96214 38 9.17406 38 8.20588V1.75626C38 0.788082 37.2125 0 36.2437 0ZM9.64753 5.81865C9.86851 5.96426 9.92918 6.26123 9.7842 6.48219C9.63795 6.70508 9.33906 6.76256 9.12064 6.61886L7.98319 5.86974V7.23196C7.98319 7.49636 7.76861 7.71094 7.5042 7.71094C7.2398 7.71094 7.02521 7.49636 7.02521 7.23196V5.86974L5.88776 6.61886C5.66934 6.76256 5.37045 6.70508 5.2242 6.48219C5.07859 6.26123 5.1399 5.96426 5.36087 5.81865L6.63308 4.98075L5.36087 4.14286C5.1399 3.99725 5.07923 3.70028 5.2242 3.47931C5.37045 3.25834 5.66615 3.19831 5.88776 3.34264L7.02521 4.09177V2.72955C7.02521 2.46515 7.2398 2.25057 7.5042 2.25057C7.76861 2.25057 7.98319 2.46515 7.98319 2.72955V4.09177L9.12064 3.34264C9.34225 3.19767 9.63923 3.25834 9.7842 3.47931C9.92982 3.70028 9.86851 3.99725 9.64753 4.14286L8.37533 4.98075L9.64753 5.81865ZM17.3114 5.81865C17.5324 5.96426 17.593 6.26123 17.4481 6.48219C17.3018 6.70508 17.0029 6.76256 16.7845 6.61886L15.6471 5.86974V7.23196C15.6471 7.49636 15.4325 7.71094 15.1681 7.71094C14.9037 7.71094 14.6891 7.49636 14.6891 7.23196V5.86974L13.5516 6.61886C13.3332 6.76256 13.0343 6.70508 12.8881 6.48219C12.7425 6.26123 12.8038 5.96426 13.0247 5.81865L14.2969 4.98075L13.0247 4.14286C12.8038 3.99725 12.7431 3.70028 12.8881 3.47931C13.0337 3.25834 13.33 3.19831 13.5516 3.34264L14.6891 4.09177V2.72955C14.6891 2.46515 14.9037 2.25057 15.1681 2.25057C15.4325 2.25057 15.6471 2.46515 15.6471 2.72955V4.09177L16.7845 3.34264C17.0061 3.19767 17.3031 3.25834 17.4481 3.47931C17.5937 3.70028 17.5324 3.99725 17.3114 4.14286L16.0392 4.98075L17.3114 5.81865ZM24.9753 5.81865C25.1962 5.96426 25.2569 6.26123 25.1119 6.48219C24.9657 6.70508 24.6668 6.76256 24.4484 6.61886L23.3109 5.86974V7.23196C23.3109 7.49636 23.0963 7.71094 22.8319 7.71094C22.5675 7.71094 22.3529 7.49636 22.3529 7.23196V5.86974L21.2155 6.61886C20.9971 6.76256 20.6982 6.70508 20.5519 6.48219C20.4063 6.26123 20.4676 5.96426 20.6886 5.81865L21.9608 4.98075L20.6886 4.14286C20.4676 3.99725 20.407 3.70028 20.5519 3.47931C20.6982 3.25834 20.9939 3.19831 21.2155 3.34264L22.3529 4.09177V2.72955C22.3529 2.46515 22.5675 2.25057 22.8319 2.25057C23.0963 2.25057 23.3109 2.46515 23.3109 2.72955V4.09177L24.4484 3.34264C24.67 3.19767 24.967 3.25834 25.1119 3.47931C25.2575 3.70028 25.1962 3.99725 24.9753 4.14286L23.7031 4.98075L24.9753 5.81865ZM32.6391 5.81865C32.8601 5.96426 32.9208 6.26123 32.7758 6.48219C32.6295 6.70508 32.3307 6.76256 32.1122 6.61886L30.9748 5.86974V7.23196C30.9748 7.49636 30.7602 7.71094 30.4958 7.71094C30.2314 7.71094 30.0168 7.49636 30.0168 7.23196V5.86974L28.8794 6.61886C28.6609 6.76256 28.3621 6.70508 28.2158 6.48219C28.0702 6.26123 28.1315 5.96426 28.3525 5.81865L29.6247 4.98075L28.3525 4.14286C28.1315 3.99725 28.0708 3.70028 28.2158 3.47931C28.3614 3.25834 28.6577 3.19831 28.8794 3.34264L30.0168 4.09177V2.72955C30.0168 2.46515 30.2314 2.25057 30.4958 2.25057C30.7602 2.25057 30.9748 2.46515 30.9748 2.72955V4.09177L32.1122 3.34264C32.3338 3.19767 32.6308 3.25834 32.7758 3.47931C32.9214 3.70028 32.8601 3.99725 32.6391 4.14286L31.3669 4.98075L32.6391 5.81865Z" fill="white"/>
</svg>
