<svg width="20" height="15" viewBox="0 0 20 15" fill="none" xmlns="http://www.w3.org/2000/svg">
<path d="M19.5646 13.8724C19.4679 13.9095 19.3749 13.9281 19.2855 13.9281C19.0846 13.9281 18.9174 13.8573 18.7833 13.716L14.2855 9.22934V11.0708C14.2855 11.9564 13.9712 12.7133 13.3424 13.3421C12.7137 13.9708 11.9568 14.2852 11.0712 14.2852H3.2142C2.32888 14.2852 1.57176 13.9708 0.942949 13.3421C0.314368 12.7133 0 11.9564 0 11.0708V3.21374C0 2.32829 0.314368 1.57137 0.942988 0.942636C1.5718 0.313899 2.32891 -0.000469208 3.21424 -0.000469208H11.0713C11.9568 -0.000469208 12.7137 0.313899 13.3425 0.942636C13.9713 1.57137 14.2856 2.32825 14.2856 3.21374V5.06652L18.7834 0.568693C18.9175 0.427459 19.0847 0.356665 19.2856 0.356665C19.375 0.356665 19.468 0.375272 19.5647 0.41233C19.855 0.538867 20 0.758284 20 1.07078V13.2137C19.9999 13.5264 19.8549 13.7458 19.5646 13.8724Z" fill="white"/>
</svg>
