<svg width="8" height="10" viewBox="0 0 8 10" fill="none" xmlns="http://www.w3.org/2000/svg">
<path d="M0.270827 7.04437C0.860697 6.51204 1.19896 5.734 1.19896 4.90973V3.74854C1.19896 2.28289 2.21882 1.0696 3.53986 0.866361V0.416479C3.53986 0.186161 3.71467 0 3.93006 0C4.14538 0 4.32019 0.186161 4.32019 0.416479V0.866361C5.64166 1.0696 6.66109 2.28289 6.66109 3.74854V4.90973C6.66109 5.734 6.99935 6.51204 7.59279 7.04765C7.74453 7.18637 7.83154 7.38794 7.83154 7.60117C7.83154 8.00316 7.52529 8.3301 7.1488 8.3301H0.711318C0.334765 8.3301 0.0285072 8.00316 0.0285072 7.60117C0.0285072 7.38794 0.11552 7.18637 0.270827 7.04437Z" fill="white"/>
<path d="M3.93035 10.0005C3.22375 10.0005 2.63267 9.46275 2.49693 8.75098H5.36377C5.22796 9.46275 4.63688 10.0005 3.93035 10.0005Z" fill="white"/>
</svg>
