<svg width="23" height="16" viewBox="0 0 23 16" fill="none" xmlns="http://www.w3.org/2000/svg">
<path d="M21.7192 1.61273C21.3716 1.42515 20.9792 1.33682 20.5847 1.3574C20.1903 1.37798 19.8091 1.50668 19.4829 1.72941L15.333 4.51435V2.29995C15.3323 1.69018 15.0898 1.10558 14.6586 0.674403C14.2275 0.243227 13.6429 0.000689905 13.0331 0H2.29995C1.69018 0.000689905 1.10558 0.243227 0.674403 0.674403C0.243227 1.10558 0.000689905 1.69018 0 2.29995V13.0331C0.000689905 13.6429 0.243227 14.2275 0.674403 14.6586C1.10558 15.0898 1.69018 15.3323 2.29995 15.333H13.0331C13.6429 15.3323 14.2275 15.0898 14.6586 14.6586C15.0898 14.2275 15.3323 13.6429 15.333 13.0331V10.8185L19.4837 13.6036C19.8091 13.8278 20.1903 13.9575 20.585 13.9781C20.9796 13.9987 21.3722 13.9094 21.7192 13.7203C22.1144 13.5009 22.4423 13.178 22.6679 12.7863C22.8934 12.3946 23.0081 11.9489 22.9995 11.497V3.83632C23.0081 3.38437 22.8935 2.9386 22.668 2.54686C22.4424 2.15512 22.1144 1.83219 21.7192 1.61273ZM13.7997 13.0331C13.7995 13.2363 13.7186 13.4312 13.5749 13.5749C13.4312 13.7186 13.2363 13.7995 13.0331 13.7997H2.29995C2.0967 13.7995 1.90184 13.7186 1.75812 13.5749C1.6144 13.4312 1.53355 13.2363 1.5333 13.0331V2.29995C1.53355 2.0967 1.6144 1.90184 1.75812 1.75812C1.90184 1.6144 2.0967 1.53355 2.29995 1.5333H13.0331C13.2363 1.53355 13.4312 1.6144 13.5749 1.75812C13.7186 1.90184 13.7995 2.0967 13.7997 2.29995V13.0331ZM21.4662 11.4967C21.4745 11.6708 21.4353 11.8439 21.3527 11.9975C21.2701 12.151 21.1474 12.2792 20.9975 12.3682C20.8956 12.4259 20.7793 12.453 20.6624 12.4463C20.5455 12.4397 20.4329 12.3996 20.3382 12.3308L15.333 8.97228V6.36075L20.3373 3.00282C20.4326 2.93504 20.5452 2.89557 20.662 2.88895C20.7788 2.88233 20.8951 2.90883 20.9975 2.96541C21.1473 3.05444 21.27 3.18251 21.3526 3.33592C21.4351 3.48933 21.4744 3.6623 21.4662 3.83632V11.4967Z" fill="#EFB73E"/>
</svg>
